<?xml version="1.0" standalone="no"?>
<!DOCTYPE svg PUBLIC "-//W3C//DTD SVG 20010904//EN"
 "http://www.w3.org/TR/2001/REC-SVG-20010904/DTD/svg10.dtd">
<svg version="1.0" xmlns="http://www.w3.org/2000/svg"
 width="2000.000000pt" height="2000.000000pt" viewBox="0 0 2000.000000 2000.000000"
 preserveAspectRatio="xMidYMid meet">
<metadata>
Created by potrace 1.14, written by Peter Selinger 2001-2017
</metadata>
<g transform="translate(0.000000,2000.000000) scale(0.100000,-0.100000)"
fill="#000000" stroke="none">
<path d="M10776 15135 c-11 -8 -30 -15 -43 -15 -13 0 -23 -4 -23 -9 0 -7 -36
-22 -62 -25 -3 -1 -10 -4 -14 -8 -4 -5 -17 -8 -30 -8 -14 0 -24 -8 -27 -21 -3
-11 -14 -23 -25 -26 -11 -3 -22 -13 -25 -23 -4 -17 -39 -41 -79 -56 -10 -3
-18 -10 -18 -15 0 -5 -11 -9 -25 -9 -17 0 -28 -7 -34 -22 -9 -23 -71 -88 -71
-74 0 4 -13 -2 -29 -13 -16 -12 -41 -21 -54 -21 -14 0 -29 -5 -32 -10 -4 -6
-10 -8 -14 -5 -13 7 -64 -21 -95 -54 -16 -17 -42 -33 -57 -36 -16 -4 -29 -11
-29 -16 0 -5 -5 -9 -12 -9 -7 0 -25 -12 -40 -27 -21 -20 -28 -36 -28 -64 0
-21 5 -41 10 -44 6 -4 8 -10 5 -15 -3 -4 6 -22 20 -38 29 -34 37 -69 22 -97
-14 -27 -33 -45 -40 -38 -23 22 -97 -82 -97 -136 0 -16 -6 -31 -12 -34 -9 -3
-6 -18 13 -55 15 -29 23 -55 18 -58 -5 -3 -9 -11 -8 -17 3 -19 -17 -61 -40
-81 -11 -11 -21 -25 -21 -33 0 -7 -4 -13 -10 -13 -5 0 -9 -30 -9 -68 1 -64 3
-71 35 -105 43 -45 47 -101 11 -135 -13 -12 -28 -22 -34 -22 -6 0 -13 -8 -17
-17 -3 -10 -11 -25 -17 -34 -13 -17 -10 -26 20 -74 21 -32 27 -90 11 -100 -5
-3 -10 -19 -10 -36 0 -16 5 -29 10 -29 6 0 10 -10 10 -23 0 -13 7 -32 15 -43
8 -10 15 -34 15 -51 0 -18 4 -33 10 -33 12 0 11 -88 -1 -96 -5 -3 -9 -18 -9
-33 0 -15 -3 -31 -7 -35 -5 -4 -8 -17 -9 -29 -1 -12 -5 -30 -9 -40 -5 -11 -2
-24 9 -36 18 -20 22 -66 6 -76 -6 -4 -8 -11 -5 -16 4 -5 1 -9 -4 -9 -14 0 -14
-67 -1 -75 6 -4 8 -11 5 -16 -4 -5 -1 -9 4 -9 6 0 11 -11 11 -25 0 -14 5 -25
10 -25 6 0 10 -7 10 -15 0 -9 11 -26 24 -38 14 -13 28 -35 31 -50 4 -15 11
-27 16 -27 5 0 9 -11 9 -23 0 -24 27 -57 46 -57 20 0 64 -57 64 -82 0 -15 5
-30 10 -33 6 -3 10 -15 10 -26 0 -28 38 -58 73 -59 29 0 59 14 95 45 13 10 34
20 48 21 23 1 84 48 84 66 0 4 -12 14 -28 22 -27 14 -64 14 -129 0 -18 -3 -41
-3 -50 1 -10 5 -21 8 -24 7 -14 -3 -43 39 -33 46 6 4 14 15 17 25 4 11 16 21
27 24 11 3 20 9 20 13 0 4 8 10 18 14 9 3 35 16 57 30 35 21 39 28 39 62 -1
46 -12 84 -24 84 -5 0 -17 17 -27 38 -9 20 -23 43 -30 50 -7 7 -13 19 -14 25
-7 84 2 128 32 158 11 11 16 28 14 46 -5 41 -16 73 -26 73 -5 0 -9 18 -9 40 0
22 5 40 10 40 18 0 12 89 -8 110 -25 27 -21 121 7 183 12 26 26 47 31 47 6 0
10 5 10 12 0 6 7 19 16 29 23 26 23 80 0 107 -11 12 -24 22 -30 22 -13 0 -36
46 -36 70 0 9 9 25 20 35 11 10 18 20 16 23 -9 9 23 32 44 32 11 0 23 7 26 15
4 8 15 15 25 15 45 0 99 49 99 90 0 23 -7 33 -30 45 -16 8 -35 15 -43 15 -8 0
-22 10 -33 21 -10 12 -29 25 -42 30 -31 12 -37 34 -18 72 8 17 16 29 16 25 0
-4 16 1 35 12 20 11 52 20 71 20 58 0 114 47 114 96 0 6 16 19 35 28 32 16 37
16 70 1 19 -9 39 -23 46 -31 6 -8 18 -14 25 -14 10 0 14 -13 14 -43 0 -45 -13
-67 -40 -67 -9 0 -25 -9 -35 -20 -24 -26 -46 -88 -34 -96 5 -3 9 -18 9 -35 0
-16 5 -29 10 -29 6 0 10 -9 10 -20 0 -11 4 -20 9 -20 11 0 41 -56 41 -77 0 -7
-4 -13 -10 -13 -5 0 -10 -10 -10 -22 0 -13 -7 -32 -15 -42 -24 -31 -19 -56 10
-56 45 0 101 -31 113 -63 13 -33 8 -47 -14 -47 -8 0 -14 -4 -14 -10 0 -11 -35
-8 -46 3 -4 4 -17 7 -30 7 -12 0 -36 11 -52 25 -33 27 -58 32 -65 13 -7 -22
14 -82 35 -100 11 -9 19 -18 18 -20 -1 -2 1 -10 4 -18 3 -8 7 -37 8 -65 2 -40
7 -52 25 -61 12 -6 47 -34 77 -62 30 -29 61 -52 68 -53 7 0 22 -3 33 -6 11 -3
43 -8 70 -10 28 -3 52 -9 55 -13 3 -4 18 -11 35 -17 50 -16 37 -91 -20 -113
-19 -8 -35 -19 -35 -26 0 -6 -13 -14 -29 -17 -53 -11 -43 -89 13 -95 28 -4 90
20 101 38 10 16 91 12 105 -5 10 -12 10 -19 2 -27 -7 -7 -12 -22 -12 -35 0
-18 -7 -23 -37 -29 -37 -7 -93 -54 -93 -78 0 -7 11 -34 25 -60 14 -26 25 -53
25 -60 0 -8 7 -19 15 -26 8 -7 15 -28 15 -46 0 -19 4 -42 9 -52 8 -14 17 -36
26 -62 21 -61 45 -108 57 -112 23 -8 -18 -73 -54 -87 -37 -14 -68 -59 -68 -97
0 -36 45 -52 83 -30 17 10 51 16 85 16 55 -1 59 -2 107 -51 28 -29 50 -54 51
-58 2 -17 19 -48 34 -61 45 -42 67 -85 65 -130 -3 -45 18 -86 36 -74 5 3 9 0
9 -5 0 -14 97 -14 105 -1 4 6 10 8 15 5 4 -3 19 8 33 24 22 27 26 28 45 15 11
-7 19 -20 17 -26 -10 -41 -19 -58 -29 -58 -19 0 -54 -42 -62 -75 -19 -78 -69
-123 -136 -124 -58 -1 -85 -16 -84 -44 2 -30 23 -57 45 -57 9 0 22 -5 29 -12
7 -7 12 -9 12 -4 0 4 12 -1 28 -12 21 -15 43 -19 97 -18 39 1 91 -4 116 -10
45 -11 47 -11 60 13 8 15 9 27 4 31 -6 4 -15 16 -21 26 -6 11 -19 24 -29 30
-55 31 -61 75 -17 124 26 29 34 32 86 32 38 0 63 -5 72 -15 9 -8 13 -15 10
-15 -6 0 12 -33 44 -82 14 -21 29 -38 34 -38 6 0 23 -12 38 -27 21 -20 28 -36
28 -65 0 -21 5 -38 10 -38 6 0 10 -11 10 -25 0 -34 31 -49 67 -33 15 7 30 15
33 19 8 9 44 22 57 20 6 -1 14 3 18 9 8 13 62 13 70 1 3 -5 18 -12 34 -16 31
-7 42 -28 45 -82 0 -17 4 -35 9 -39 4 -4 7 -19 7 -34 0 -26 47 -80 70 -80 5 0
10 -7 10 -15 0 -8 4 -15 9 -15 5 0 12 -11 15 -25 8 -29 63 -95 81 -95 6 0 33
11 59 25 63 34 134 34 164 2 12 -13 22 -28 22 -34 0 -14 -35 -44 -43 -36 -4 3
-7 1 -7 -5 0 -7 -16 -12 -38 -12 -30 0 -44 -7 -68 -32 -45 -49 -35 -86 34
-126 27 -15 51 -4 103 51 20 20 44 37 53 37 29 0 73 -28 79 -51 7 -26 -8 -68
-25 -71 -7 0 -18 -2 -25 -2 -6 -1 -27 -12 -45 -26 -18 -14 -37 -25 -43 -25 -5
0 -15 -20 -21 -45 -12 -50 3 -90 35 -90 26 0 117 47 133 67 26 35 138 16 138
-23 0 -7 8 -18 18 -23 10 -7 13 -14 7 -18 -5 -5 -15 -17 -21 -28 -13 -23 -70
-57 -93 -54 -30 3 -40 -1 -61 -23 -26 -29 -25 -59 3 -86 24 -22 67 -30 67 -12
0 6 7 10 15 10 8 0 25 11 37 25 12 14 35 32 52 40 79 40 128 -5 114 -105 -4
-30 -5 -66 -2 -79 5 -26 27 -51 43 -51 15 0 83 -84 71 -88 -5 -2 -10 -14 -10
-27 0 -24 -17 -33 -79 -44 -19 -3 -39 -15 -45 -26 -6 -11 -15 -23 -19 -26 -5
-3 -9 -10 -9 -15 0 -5 -3 -15 -6 -22 -2 -8 6 -25 20 -38 22 -23 26 -24 51 -11
15 8 36 25 47 37 16 19 30 23 76 23 31 0 59 -4 63 -9 3 -5 15 -14 26 -20 12
-6 21 -23 22 -40 2 -23 -4 -35 -34 -56 -20 -16 -49 -28 -64 -28 -15 0 -30 -4
-34 -10 -3 -5 -12 -7 -20 -4 -21 8 -54 -31 -60 -71 -5 -35 43 -109 73 -111 29
-2 33 -5 44 -31 6 -16 12 -32 12 -36 1 -5 9 -14 19 -21 9 -7 17 -23 17 -35 0
-19 5 -21 54 -21 35 0 58 5 66 15 7 8 21 15 31 15 11 0 19 5 19 10 0 22 47 8
83 -26 30 -29 35 -39 26 -50 -6 -8 -8 -14 -3 -14 4 0 -3 -11 -16 -25 -17 -18
-34 -25 -60 -25 -35 0 -50 -11 -77 -58 -21 -36 -15 -56 33 -102 53 -53 82
-106 68 -127 -12 -20 -110 -73 -134 -73 -11 0 -30 -11 -43 -24 -14 -14 -27
-23 -29 -20 -3 2 -15 -7 -28 -21 -13 -14 -29 -25 -36 -25 -6 0 -17 -7 -24 -14
-6 -8 -28 -20 -48 -27 -52 -16 -86 -53 -71 -77 12 -20 64 -52 83 -52 13 0 68
27 106 53 45 30 115 -1 115 -50 -1 -25 -32 -63 -52 -63 -7 0 -13 -4 -13 -10 0
-5 -17 -10 -38 -10 -29 0 -45 -7 -66 -29 -29 -31 -29 -34 2 -86 17 -28 23 -30
78 -30 44 0 59 4 59 14 0 21 54 49 94 50 37 1 73 -23 65 -44 -3 -7 -1 -16 5
-20 6 -3 11 -16 11 -29 0 -27 37 -106 49 -106 11 0 72 -56 73 -67 0 -4 3 -14
5 -21 3 -7 0 -19 -7 -27 -7 -8 -9 -15 -6 -15 4 0 1 -7 -8 -15 -8 -8 -24 -15
-35 -15 -12 0 -21 -4 -21 -8 0 -4 -10 -8 -21 -9 -12 -1 -29 -9 -38 -17 -10 -9
-23 -16 -29 -16 -21 0 -13 -55 11 -78 23 -22 47 -29 47 -14 0 4 9 12 19 17 11
6 40 21 64 34 44 23 45 23 83 5 53 -25 60 -33 59 -74 0 -35 1 -34 -95 -79 -8
-4 -40 -7 -71 -6 -62 2 -122 -20 -127 -46 -5 -25 48 -71 73 -64 11 4 36 8 55
9 37 3 66 14 115 45 37 24 124 27 165 6 29 -15 30 -18 30 -88 0 -67 2 -73 25
-84 14 -6 25 -7 25 -2 0 5 7 9 15 9 8 0 20 10 26 22 18 33 40 53 77 69 17 8
32 17 32 21 0 3 8 5 18 4 18 -3 44 9 75 34 10 8 26 15 36 15 19 0 52 21 106
68 18 15 35 27 39 27 16 0 89 62 111 94 22 32 19 56 -4 41 -5 -3 -12 -1 -16 5
-3 5 -25 10 -48 10 -44 1 -72 18 -95 59 -9 15 -10 27 -3 34 5 7 11 25 13 41 2
20 12 35 33 46 32 18 31 18 74 26 16 4 50 28 77 55 27 27 56 49 64 49 9 0 20
3 24 7 4 5 26 8 49 8 63 0 83 -25 81 -100 -2 -75 -1 -68 -21 -91 -10 -11 -30
-19 -45 -18 -16 1 -28 -3 -28 -7 0 -5 -6 -9 -13 -9 -8 0 -24 -11 -37 -25 -13
-14 -29 -25 -37 -25 -7 0 -13 -11 -13 -25 0 -23 3 -25 49 -25 41 0 53 4 69 25
11 14 23 25 28 25 4 0 18 10 31 22 18 17 38 23 74 24 46 2 54 6 106 58 31 31
61 56 66 56 5 0 20 9 34 19 13 11 31 17 39 14 8 -3 34 15 64 46 27 28 57 51
65 51 8 0 23 4 33 9 9 5 37 17 62 27 25 10 58 33 74 51 16 18 33 30 37 27 4
-2 10 0 14 6 3 5 27 10 53 10 50 0 73 -17 101 -72 18 -35 3 -55 -48 -63 -20
-3 -44 -10 -53 -16 -10 -5 -35 -9 -57 -9 -47 0 -62 -16 -60 -66 3 -44 28 -78
76 -101 45 -21 59 -13 58 33 -2 59 25 84 90 84 62 0 113 -23 125 -56 5 -13 15
-24 22 -24 6 0 -3 -16 -22 -35 -18 -19 -37 -32 -42 -29 -4 3 -8 0 -8 -5 0 -7
-25 -11 -63 -11 -36 0 -68 -5 -75 -12 -18 -18 -16 -118 3 -118 8 0 15 -4 15
-10 0 -20 26 -9 65 28 50 46 77 59 139 65 35 4 55 12 72 30 13 15 24 30 24 35
0 10 58 63 87 80 13 6 34 12 47 12 15 0 45 18 78 48 62 55 85 69 113 66 33 -3
65 -16 65 -26 0 -6 7 -26 17 -45 12 -27 13 -37 4 -43 -7 -4 -12 -10 -12 -14 3
-19 -2 -29 -30 -61 -20 -23 -40 -35 -58 -36 -14 0 -39 -9 -56 -20 -16 -11 -38
-22 -47 -25 -10 -4 -18 -10 -18 -14 0 -5 -13 -11 -30 -15 -16 -4 -32 -11 -35
-16 -4 -5 -29 -9 -56 -9 -47 0 -53 -3 -104 -55 -29 -30 -60 -55 -68 -55 -20 0
-77 -30 -77 -41 0 -5 -7 -9 -15 -9 -9 0 -18 -8 -22 -17 -15 -43 -78 -83 -129
-83 -21 0 -37 -6 -40 -14 -3 -8 -14 -16 -25 -19 -13 -3 -19 -14 -19 -32 0 -24
20 -55 35 -55 17 0 110 53 121 68 10 14 27 18 81 17 73 -1 104 16 111 60 8 42
59 73 113 69 33 -2 119 30 119 45 0 4 14 22 31 39 29 30 79 44 79 23 0 -5 9
-11 20 -14 21 -5 40 -44 40 -81 0 -39 -30 -56 -97 -56 -52 0 -64 -4 -87 -26
-14 -15 -26 -36 -26 -47 0 -20 -76 -101 -88 -94 -4 3 -24 12 -44 22 -33 15
-39 15 -52 2 -22 -22 -16 -58 17 -93 39 -43 76 -33 113 31 7 13 28 23 60 28
27 5 53 12 59 18 5 5 21 9 36 9 15 0 32 7 39 15 7 8 18 15 24 15 6 0 18 9 26
19 7 11 17 18 21 15 4 -2 10 0 14 6 3 5 27 10 53 10 35 0 52 -5 65 -20 19 -22
23 -60 7 -60 -5 0 -10 -9 -10 -21 0 -32 39 -58 87 -59 38 0 48 5 90 49 40 41
54 49 81 47 42 -3 102 -59 102 -96 0 -30 65 -100 93 -100 10 0 28 11 41 25 13
14 28 25 33 25 5 0 18 9 29 21 23 26 107 81 152 100 17 8 32 18 32 23 0 4 6 6
14 3 8 -3 17 1 20 9 5 14 53 39 69 36 4 -1 7 2 7 8 0 5 14 10 30 10 17 0 39 9
50 20 20 20 27 70 13 84 -5 4 -8 13 -8 19 0 7 -5 12 -12 12 -6 0 -15 3 -19 7
-15 16 -47 7 -70 -17 -13 -14 -27 -25 -32 -25 -5 0 -15 -7 -22 -15 -17 -20
-84 -19 -115 1 -37 24 -33 65 10 103 20 17 48 34 63 37 42 10 52 23 52 69 0
30 -6 47 -20 60 -26 23 -51 75 -46 95 10 48 43 90 71 90 8 0 24 5 35 12 16 10
23 9 45 -12 22 -21 25 -32 25 -91 0 -88 19 -96 81 -33 24 24 50 44 59 44 8 1
26 9 38 20 21 18 22 21 9 35 -11 10 -30 14 -61 11 -67 -5 -89 10 -91 61 -2 36
3 47 31 74 32 31 34 37 34 100 0 37 -4 70 -9 74 -5 3 -8 28 -7 55 2 36 -1 54
-13 64 -21 19 -83 32 -150 30 -55 -2 -64 2 -107 45 l-24 24 27 29 c25 26 73
39 73 20 0 -7 29 -8 88 -3 6 1 12 6 12 13 0 6 10 22 22 35 18 19 23 37 24 84
0 32 -3 59 -8 59 -4 0 -8 5 -8 12 0 7 -18 31 -41 54 -34 35 -40 46 -33 65 4
13 7 30 6 37 -2 6 2 12 8 12 5 0 10 13 10 29 0 17 4 32 8 35 13 8 15 116 2
116 -5 0 -10 6 -10 14 0 7 -7 19 -15 26 -8 7 -15 23 -15 36 0 13 -4 24 -10 24
-5 0 -10 6 -10 14 0 7 -7 19 -15 26 -8 7 -15 23 -15 35 0 21 -11 32 -34 33 -5
0 -12 6 -17 13 -6 10 -13 10 -34 1 -15 -7 -30 -10 -34 -8 -4 3 -14 -4 -21 -15
-15 -20 -45 -25 -55 -9 -3 6 -17 10 -31 10 -14 0 -27 7 -31 18 -3 9 -22 34
-41 55 -29 29 -43 37 -72 37 -24 0 -43 -7 -55 -20 -10 -11 -43 -32 -74 -47
-59 -28 -68 -31 -116 -40 -16 -3 -40 -14 -52 -26 -12 -11 -31 -25 -41 -31 -11
-6 -28 -16 -39 -23 -15 -9 -24 -9 -44 2 -13 8 -33 18 -44 24 -12 5 -27 17 -35
26 -13 16 -52 37 -75 40 -17 2 -59 -18 -83 -39 -13 -12 -27 -20 -30 -20 -11 2
-34 -6 -87 -32 -28 -13 -60 -24 -72 -24 -12 0 -25 -5 -28 -11 -4 -6 -13 -8
-21 -5 -7 3 -16 1 -19 -4 -4 -6 -31 -10 -62 -10 -51 0 -58 3 -92 38 -48 49
-76 65 -98 53 -35 -18 -91 -41 -102 -41 -6 0 -11 -3 -11 -8 0 -4 -9 -12 -19
-17 -106 -54 -132 -69 -142 -81 -7 -9 -32 -14 -68 -14 -56 0 -57 1 -116 60
-33 33 -67 60 -77 60 -25 0 -56 -18 -100 -60 -21 -19 -38 -30 -38 -25 0 4 -8
-2 -19 -13 -13 -16 -30 -22 -60 -22 -29 0 -52 -7 -74 -24 -18 -14 -44 -28 -59
-31 -16 -4 -28 -11 -28 -15 0 -4 -10 -11 -22 -15 -13 -4 -25 -8 -28 -9 -3 -1
-15 -5 -27 -10 -13 -4 -23 -11 -23 -16 0 -7 -41 -21 -75 -25 -5 -1 -18 -5 -28
-9 -10 -5 -23 -4 -31 3 -8 7 -18 11 -22 10 -14 -2 -54 13 -54 20 0 4 -13 14
-29 24 -37 22 -94 22 -112 1 -10 -13 -25 -15 -69 -10 -65 7 -79 10 -105 21
-27 11 -95 76 -95 91 0 6 -7 17 -15 24 -8 7 -15 20 -15 29 0 10 -11 28 -25 41
-14 13 -25 29 -25 37 0 7 -5 13 -11 13 -5 0 -8 4 -4 9 3 5 1 12 -5 16 -15 9
-12 62 5 79 8 8 15 24 15 34 0 11 5 22 12 24 8 3 8 12 -3 36 -8 18 -17 32 -21
32 -5 0 -8 6 -8 14 0 7 -7 19 -15 26 -15 13 -21 70 -7 70 12 0 44 63 35 69 -4
3 -13 15 -19 26 -6 11 -20 20 -30 21 -10 0 -31 4 -46 8 -27 8 -28 11 -28 67 0
37 -4 59 -11 59 -6 0 -9 9 -6 19 8 30 -20 61 -54 61 -22 0 -32 6 -38 23 -5 12
-7 25 -4 30 2 4 -1 7 -6 7 -6 0 -11 13 -11 30 0 38 -49 90 -86 90 -18 0 -38
12 -60 36 -32 33 -45 74 -25 74 5 0 12 13 16 30 4 16 11 32 16 35 5 4 9 14 9
24 0 10 11 24 25 31 28 15 29 37 3 54 -19 12 -28 6 -32 -20 -2 -10 -9 -21 -17
-24 -8 -4 -24 -12 -36 -18 -32 -17 -53 -15 -102 8 -41 20 -42 22 -40 68 2 39
8 54 37 85 20 20 41 37 47 37 7 0 20 9 30 20 15 16 15 22 5 35 -20 24 -63 19
-84 -10 -16 -22 -27 -25 -77 -25 -49 0 -59 3 -64 20 -3 11 -24 36 -46 57 -21
20 -39 42 -39 48 0 27 -110 49 -125 25 -4 -6 -11 -8 -16 -5 -5 4 -9 1 -9 -4 0
-6 -11 -11 -25 -11 -14 0 -25 4 -25 10 0 5 -3 9 -7 8 -25 -5 -43 17 -43 51 0
31 4 38 33 50 17 8 40 23 50 33 37 38 2 93 -45 71 -59 -29 -72 -30 -134 -19
-32 6 -54 21 -105 72 -67 67 -101 80 -133 49 -8 -9 -33 -15 -59 -15 -61 0 -77
20 -77 96 0 65 -11 84 -47 84 -13 0 -23 5 -23 12 0 6 -3 9 -6 5 -15 -15 -104
37 -104 61 0 4 -22 30 -50 57 -27 27 -50 54 -50 60 0 7 -11 22 -25 35 -14 13
-25 27 -25 31 0 13 -63 72 -93 88 -23 12 -31 12 -53 1 -20 -11 -29 -12 -44 -2
-11 7 -26 12 -34 12 -7 0 -21 16 -30 35 -9 19 -21 37 -26 40 -6 3 -10 16 -10
28 0 16 -11 28 -37 42 -21 10 -48 28 -60 39 -13 11 -23 16 -23 12 0 -12 -25
17 -33 37 -4 11 -16 21 -26 24 -12 3 -23 17 -26 34 -4 16 -11 29 -16 29 -5 0
-9 11 -9 24 0 14 -5 28 -11 31 -5 4 -9 17 -8 28 3 28 -10 58 -33 79 -11 9 -19
18 -18 20 5 12 -24 58 -54 87 -20 19 -36 43 -36 52 0 10 -4 21 -10 24 -5 3
-10 14 -10 24 0 10 -7 24 -15 31 -8 7 -15 23 -15 36 0 13 -4 24 -10 24 -5 0
-10 11 -10 24 0 13 -7 29 -15 36 -8 7 -15 19 -15 26 0 8 -4 14 -10 14 -5 0
-10 6 -10 14 0 7 -7 19 -15 26 -8 7 -15 23 -15 36 0 13 -4 24 -9 24 -5 0 -12
8 -15 18 -11 30 -35 67 -54 82 -21 17 -36 49 -33 69 1 8 -1 17 -6 20 -14 11
-34 52 -29 60 3 5 -8 22 -24 39 -16 17 -32 43 -36 57 -3 14 -10 25 -14 25 -8
0 -25 49 -21 64 1 5 -2 12 -6 15 -5 3 -21 31 -36 61 -27 55 -27 57 -27 261 0
201 1 207 25 253 14 26 25 57 25 70 0 12 5 27 11 33 7 7 7 17 1 29 -25 46 -46
100 -44 111 1 6 -2 14 -8 18 -13 8 -13 172 0 180 6 4 8 10 6 14 -3 4 9 21 27
38 25 24 40 30 72 29 43 -2 78 20 56 34 -8 4 -12 23 -10 46 3 53 -11 164 -21
164 -15 0 -75 135 -76 170 -1 48 -10 66 -61 113 -41 38 -65 70 -79 110 -8 21
-61 23 -88 2z m-96 -519 c61 -27 77 -71 30 -83 -11 -3 -20 -9 -20 -14 0 -21
-85 7 -113 38 -17 19 -16 21 3 46 23 29 56 33 100 13z m-140 -141 c13 -12 20
-31 20 -55 0 -38 0 -38 -42 -37 -54 0 -68 11 -68 54 0 18 6 40 13 47 16 18 52
14 77 -9z m235 -1024 c25 -15 30 -24 30 -54 0 -20 -3 -36 -6 -34 -3 1 -13 -4
-22 -11 -10 -9 -17 -10 -22 -2 -3 6 -10 8 -14 6 -4 -3 -17 1 -28 9 -25 18 -24
70 3 90 23 18 22 18 59 -4z m1358 -1881 c9 -35 -3 -60 -29 -60 -20 0 -24 5
-24 28 0 47 42 72 53 32z m449 -314 c8 -20 7 -28 -5 -40 -21 -22 -30 -20 -44
9 -6 14 -7 25 -2 25 5 0 9 7 9 15 0 24 29 17 42 -9z m653 -462 c14 -9 22 -20
19 -25 -3 -5 0 -9 5 -9 6 0 11 -16 11 -35 0 -19 -4 -35 -10 -35 -5 0 -9 -3 -8
-7 2 -12 -14 -47 -26 -55 -7 -5 -8 -11 -1 -15 6 -5 15 -17 21 -28 6 -11 20
-22 30 -25 27 -7 57 -31 75 -60 19 -31 5 -65 -36 -86 -24 -12 -30 -12 -44 -1
-9 8 -23 17 -33 20 -9 3 -31 36 -49 74 -18 37 -36 70 -39 73 -15 13 -40 61
-40 75 0 9 -7 23 -15 31 -8 9 -15 19 -15 24 0 13 63 74 90 87 34 16 37 16 65
-3z m221 -488 c28 -28 9 -86 -29 -86 -7 0 -24 11 -37 25 -19 20 -21 27 -10 40
7 8 19 15 26 15 8 0 14 5 14 10 0 15 19 12 36 -4z m146 -233 c17 -20 16 -46
-2 -68 -17 -20 -30 -19 -57 7 -30 28 -29 44 5 61 36 20 37 20 54 0z m-65 -338
c20 -21 12 -67 -13 -80 -12 -6 -28 -16 -35 -21 -28 -22 -48 -23 -74 -2 -40 31
-32 76 20 105 42 24 76 23 102 -2z m3407 -161 c20 -8 21 -41 1 -61 -20 -19
-45 -1 -45 32 0 33 12 41 44 29z m-1911 -37 c6 -17 -9 -44 -19 -34 -4 4 -9 16
-11 27 -3 23 22 28 30 7z m1644 -234 c3 -10 14 -27 25 -39 18 -21 18 -22 -9
-53 -45 -51 -123 -34 -123 28 0 54 91 108 107 64z m-2903 -33 l25 -31 -28 -29
c-33 -35 -50 -37 -74 -10 -29 34 -19 76 23 93 25 9 27 8 54 -23z m2335 -51
c24 -19 24 -20 5 -34 -10 -7 -28 -20 -39 -28 -18 -14 -21 -13 -41 10 -18 21
-19 29 -10 49 14 30 51 31 85 3z m939 2 c6 -1 12 -8 12 -16 0 -9 7 -18 15 -21
21 -9 19 -66 -3 -84 -52 -42 -62 -43 -93 -14 -16 15 -29 33 -29 40 0 7 -5 14
-12 16 -9 3 -7 14 5 40 19 40 26 45 65 42 15 -1 33 -3 40 -3z m-1515 -23 c12
-6 29 -14 37 -18 9 -4 16 -24 18 -51 2 -39 0 -45 -24 -56 -16 -7 -32 -9 -42
-3 -10 5 -32 15 -50 22 -43 17 -65 58 -49 93 10 20 19 25 50 25 20 0 47 -5 60
-12z m907 -19 c0 -5 5 -7 10 -4 20 12 58 -22 55 -48 -5 -42 -16 -71 -38 -94
-21 -23 -57 -31 -57 -13 0 6 -5 10 -11 10 -7 0 -18 8 -25 18 -32 42 -3 142 42
142 13 0 24 -5 24 -11z m-1462 -19 c59 0 94 -77 52 -113 -26 -22 -38 -22 -91
6 -39 21 -44 28 -47 63 -3 36 0 41 25 50 15 5 30 6 31 2 2 -4 15 -8 30 -8z
m903 -25 c33 -8 105 -80 90 -90 -6 -3 -9 -11 -6 -16 4 -5 -2 -12 -12 -16 -10
-3 -26 -13 -36 -21 -13 -12 -20 -13 -29 -4 -18 18 -43 15 -63 -8 -9 -10 -22
-18 -29 -17 -6 1 -10 -3 -9 -9 1 -6 -15 -28 -36 -48 -33 -33 -45 -38 -85 -38
-63 0 -105 33 -105 82 0 57 27 80 95 80 49 0 62 4 86 27 15 15 28 30 28 35 0
20 71 71 80 58 3 -5 17 -11 31 -15z m949 -61 c0 -6 7 -17 15 -24 20 -17 19
-64 -2 -81 -39 -30 -65 -41 -76 -30 -30 30 -117 -20 -117 -67 0 -10 -9 -27
-20 -37 -27 -24 -102 -16 -136 16 -52 48 -16 129 58 129 21 0 38 4 38 9 0 6 9
8 19 6 13 -2 34 11 62 42 23 25 58 56 77 69 l35 24 24 -22 c12 -12 23 -27 23
-34z m-1479 9 c54 -26 59 -30 59 -62 0 -47 -46 -91 -95 -91 -19 0 -35 4 -35 9
0 8 -29 21 -54 25 -16 2 -49 70 -37 74 6 2 11 13 11 24 0 13 5 18 13 15 7 -3
19 4 25 14 17 26 45 24 113 -8z m-1479 -40 c23 -21 23 -60 -1 -72 -14 -8 -23
-5 -40 13 -24 25 -27 46 -9 64 16 16 28 15 50 -5z m389 0 c8 -10 21 -31 29
-46 12 -25 12 -31 -5 -60 -38 -65 -65 -76 -108 -45 -44 31 -66 60 -59 78 8 22
44 60 58 60 6 0 17 7 24 15 17 20 44 19 61 -2z m2020 -4 c50 -35 53 -53 18
-92 -21 -24 -37 -33 -50 -30 -10 3 -19 0 -19 -6 0 -14 -42 -15 -56 -1 -16 16
-64 -11 -64 -35 0 -12 -5 -26 -12 -33 -7 -7 -9 -12 -5 -12 4 0 -6 -13 -21 -30
-40 -41 -103 -42 -144 -3 -15 15 -28 34 -28 42 0 20 50 71 70 71 9 0 20 4 26
9 5 5 22 11 38 13 16 2 34 12 40 23 6 11 20 28 30 37 10 10 15 18 11 18 -5 0
2 11 15 25 31 33 108 35 151 4z m-1487 -22 c18 -19 18 -73 0 -88 -16 -13 -69
-20 -91 -12 -13 5 -43 58 -43 76 0 6 8 19 17 30 14 15 26 17 62 12 24 -4 49
-12 55 -18z m341 -67 c27 -28 40 -69 26 -80 -3 -3 -11 -14 -17 -25 -34 -61
-159 2 -152 76 3 32 6 34 43 37 22 2 44 8 50 13 14 14 19 12 50 -21z m-1425
-69 c0 -31 -27 -61 -55 -61 -11 0 -36 15 -53 33 -37 38 -35 60 6 81 22 12 30
11 64 -7 28 -16 38 -27 38 -46z m1736 -1 c19 -11 34 -18 34 -16 0 3 14 -9 30
-26 58 -57 28 -118 -58 -118 -39 0 -53 5 -72 25 -13 14 -29 25 -37 25 -22 0
-17 80 7 105 25 27 53 28 96 5z m-876 -15 c17 -20 -3 -45 -36 -45 -28 0 -37
13 -29 40 8 24 47 27 65 5z m2370 -20 c23 -21 28 -93 8 -113 -14 -14 -74 -16
-83 -3 -6 11 -40 9 -67 -3 -19 -9 -30 -38 -32 -83 -2 -34 -28 -66 -63 -77 -26
-8 -67 24 -88 69 -14 28 -14 37 -3 55 19 32 74 90 85 90 5 0 20 11 33 25 13
14 34 25 47 25 13 0 23 4 23 9 0 11 59 28 93 25 15 -1 37 -10 47 -19z m-2930
-45 c0 -28 -3 -30 -35 -30 -22 0 -38 6 -41 15 -11 28 4 45 41 45 32 0 35 -2
35 -30z m923 -14 c20 -16 37 -29 37 -31 0 -1 -7 -16 -16 -33 -14 -29 -20 -32
-64 -32 -27 0 -51 4 -54 9 -9 14 -68 -19 -73 -40 -3 -11 -9 -19 -14 -19 -5 0
-9 -10 -9 -22 0 -27 -38 -48 -84 -48 -21 0 -41 11 -68 37 -21 20 -38 43 -38
50 0 17 53 43 89 43 16 0 33 5 36 10 3 6 17 10 30 10 19 0 29 10 45 44 23 51
27 53 95 52 39 -1 59 -8 88 -30z m1470 25 c5 -1 6 -5 2 -10 -3 -5 -1 -12 5
-16 24 -15 6 -53 -46 -98 -19 -16 -23 -16 -52 -1 -32 15 -38 32 -32 89 3 36
41 47 123 36z m-610 -23 c15 -7 27 -16 27 -20 0 -4 7 -5 15 -2 12 5 15 -2 15
-27 -1 -39 -16 -63 -45 -71 -11 -3 -27 -9 -36 -12 -10 -5 -26 3 -45 21 -35 34
-58 73 -44 73 5 0 10 7 10 15 0 8 7 15 15 15 8 0 15 5 15 10 0 14 41 13 73 -2z
m-1402 -37 c42 -39 15 -111 -42 -111 -15 0 -31 -4 -34 -10 -3 -5 -25 -10 -49
-10 -32 0 -48 -6 -66 -25 -13 -14 -20 -25 -16 -25 4 0 -3 -10 -14 -22 -44 -47
-130 -17 -130 44 0 23 7 32 38 46 20 9 39 20 42 23 5 6 42 21 50 20 3 0 25 19
50 43 25 24 54 47 65 49 35 9 84 -1 106 -22z m2903 -6 c6 -11 15 -23 20 -26 5
-4 3 -20 -4 -36 -11 -25 -18 -29 -47 -27 -19 1 -43 10 -54 19 -24 22 -25 71
-2 84 28 15 75 8 87 -14z m-2047 -10 c29 -14 44 -42 48 -88 3 -21 -31 -48 -51
-40 -8 3 -14 0 -14 -6 0 -6 -18 -11 -42 -11 -50 -1 -74 -18 -103 -75 l-21 -40
-64 -1 c-75 0 -110 21 -110 66 0 42 75 101 123 96 20 -2 39 10 84 55 64 64 93
72 150 44z m-1450 -27 c17 -13 17 -63 1 -75 -26 -20 -62 -23 -80 -6 -24 22
-25 90 0 96 22 6 63 -2 79 -15z m2339 -9 c13 -12 34 -27 46 -33 30 -15 35 -56
11 -93 -25 -39 -42 -50 -72 -48 -70 5 -118 57 -96 102 11 22 76 93 84 93 3 0
15 -10 27 -21z m947 -68 c43 -62 29 -107 -37 -118 -20 -3 -36 -9 -36 -13 0 -7
-23 -17 -59 -25 -8 -2 -17 -8 -20 -12 -41 -60 -75 -83 -122 -83 -51 0 -75 25
-76 78 0 23 3 42 8 42 5 0 9 9 9 19 0 21 33 32 103 35 30 2 47 11 85 49 26 26
53 47 60 47 7 0 12 5 12 10 0 6 10 10 23 10 14 0 32 -14 50 -39z m-538 -42
c25 -25 29 -37 27 -76 -2 -51 25 -93 58 -93 34 0 53 -36 51 -96 -1 -64 -20
-94 -58 -94 -12 0 -23 -5 -23 -12 0 -6 -3 -9 -6 -6 -13 14 -83 -18 -125 -57
-47 -44 -68 -49 -122 -27 -15 6 -26 15 -25 19 0 5 -2 15 -6 24 -4 9 -6 34 -4
55 3 33 8 40 47 61 24 13 54 23 66 23 32 0 46 21 47 75 0 38 -5 52 -28 78 -61
68 -69 105 -26 136 41 31 91 27 127 -10z m-2128 -11 c6 15 27 15 56 0 12 -6
29 -14 37 -18 38 -18 10 -129 -33 -131 -68 -3 -92 0 -101 13 -6 8 -21 20 -33
27 -23 11 -30 40 -15 55 4 4 7 13 7 19 0 17 59 46 68 33 6 -8 10 -7 14 2z
m1506 0 c12 -6 29 -14 37 -18 10 -5 16 -25 18 -60 4 -64 -8 -74 -83 -75 -37 0
-55 5 -71 21 -29 28 -39 60 -21 71 7 4 17 16 20 26 4 11 16 21 27 24 11 3 20
9 20 14 0 13 26 11 53 -3z m-1980 -88 c26 -12 28 -18 23 -48 -7 -47 -23 -62
-65 -62 -28 0 -44 7 -65 29 -34 35 -31 59 9 81 34 19 58 19 98 0z m349 -97
c31 -30 33 -59 5 -90 -17 -20 -31 -23 -87 -23 -71 0 -90 -10 -90 -47 0 -13 -3
-23 -8 -23 -4 0 -12 -10 -17 -22 -6 -13 -19 -23 -30 -23 -11 1 -23 -4 -26 -9
-4 -5 -15 -5 -25 -1 -11 5 -26 9 -34 9 -22 1 -39 27 -40 58 0 20 16 44 65 93
36 36 65 62 65 58 0 -3 10 3 23 14 49 46 153 49 199 6z m2683 -93 c4 -6 10 -8
14 -5 8 4 48 -33 44 -41 -1 -2 0 -11 3 -19 4 -8 3 -23 -2 -32 -4 -10 -8 -22
-8 -27 -1 -5 -16 -18 -35 -28 -33 -19 -34 -19 -57 3 -13 12 -24 19 -24 14 0
-4 -11 5 -25 21 -30 34 -27 59 10 96 28 28 68 37 80 18z m-2571 -119 c9 -7 14
-23 12 -35 -3 -11 -5 -30 -5 -42 -1 -18 -7 -21 -48 -21 -40 -1 -53 4 -80 30
-18 17 -33 37 -33 44 0 35 118 54 154 24z m2356 -21 c11 -11 20 -26 20 -34 0
-8 5 -16 10 -18 6 -2 13 -21 17 -43 5 -29 19 -53 54 -90 27 -27 49 -56 49 -62
0 -7 5 -13 10 -13 20 0 10 -53 -15 -76 -22 -20 -28 -21 -56 -11 -42 16 -79 62
-79 98 0 45 -37 77 -88 75 -41 -2 -82 -27 -82 -51 0 -23 -56 -65 -86 -64 -47
1 -87 30 -91 66 -6 45 37 87 122 119 11 4 23 7 26 6 3 -1 21 15 39 33 19 19
30 35 25 35 -5 0 2 11 15 25 29 31 81 34 110 5z m-2537 -108 c30 -31 32 -40
16 -76 -11 -23 -47 -39 -89 -40 -24 0 -60 15 -60 25 0 5 -7 9 -15 9 -25 0 -18
51 12 82 21 22 36 28 68 28 32 0 47 -6 68 -28z"/>
<path d="M10725 12640 c4 -6 11 -8 16 -5 14 9 11 15 -7 15 -8 0 -12 -5 -9 -10z"/>
<path d="M10857 12439 c-9 -33 3 -49 33 -49 29 0 40 18 32 53 -6 26 -58 23
-65 -4z"/>
<path d="M10377 12203 c-10 -3 -34 -22 -55 -44 -20 -22 -48 -42 -62 -44 -26
-5 -82 -63 -74 -77 3 -4 14 -8 24 -8 10 0 22 -4 25 -10 8 -12 43 7 68 38 13
16 29 22 58 22 21 0 39 5 39 10 0 6 3 9 8 8 18 -4 42 16 42 36 0 12 5 27 12
34 9 9 9 12 0 12 -7 0 -12 7 -12 15 0 15 -33 18 -73 8z"/>
<path d="M11072 12027 c-28 -30 -28 -41 3 -55 14 -6 25 -8 25 -3 0 5 8 11 18
13 21 6 25 37 6 55 -18 18 -27 16 -52 -10z"/>
<path d="M10858 11883 c-2 -5 -3 -19 -3 -33 0 -32 40 -41 60 -13 11 15 11 21
-2 36 -16 17 -49 23 -55 10z"/>
<path d="M10295 11820 c-15 -16 -15 -21 -4 -32 30 -28 70 -42 87 -32 21 14 27
51 12 70 -18 21 -74 18 -95 -6z"/>
<path d="M11227 11776 c-28 -21 -3 -56 40 -56 28 0 33 4 33 23 0 43 -37 60
-73 33z"/>
<path d="M10555 11367 c-25 -31 3 -78 39 -64 11 4 16 18 16 42 0 30 -3 35 -22
35 -13 -1 -27 -6 -33 -13z"/>
<path d="M10910 11265 c-10 -13 -9 -15 9 -15 12 0 21 6 21 15 0 8 -4 15 -9 15
-5 0 -14 -7 -21 -15z"/>
<path d="M11798 11270 c-12 -8 -14 -17 -9 -38 6 -21 13 -27 36 -27 39 0 53 25
29 53 -20 24 -31 26 -56 12z"/>
<path d="M10337 11263 c-12 -12 -7 -32 14 -57 17 -20 24 -22 45 -12 28 13 29
19 8 51 -15 24 -52 33 -67 18z"/>
<path d="M11292 11224 c-18 -19 -15 -24 13 -24 15 0 25 6 25 14 0 20 -23 26
-38 10z"/>
<path d="M12169 11230 c-29 -8 -62 -37 -72 -64 -5 -12 4 -28 27 -52 l34 -35
33 19 c31 17 34 24 37 68 3 56 -15 76 -59 64z"/>
<path d="M10651 11151 c-8 -11 -22 -18 -32 -16 -10 2 -21 0 -24 -6 -4 -5 -17
-9 -30 -9 -13 0 -36 -6 -52 -14 -15 -8 -40 -20 -55 -26 -14 -7 -29 -21 -31
-32 -3 -11 -15 -22 -26 -25 -12 -3 -21 -9 -21 -14 0 -5 -11 -4 -24 2 -17 8
-29 8 -45 0 -14 -8 -21 -8 -21 -1 0 5 -11 10 -24 10 -14 0 -27 4 -31 9 -3 5
-41 10 -85 10 -66 0 -86 -3 -122 -24 -24 -14 -59 -25 -79 -25 -20 0 -50 -7
-68 -16 -17 -9 -38 -17 -46 -18 -8 -1 -18 -5 -21 -9 -13 -13 -61 -7 -74 8 -7
8 -19 15 -26 15 -8 0 -14 5 -14 10 0 6 -6 10 -14 10 -7 0 -19 7 -26 15 -7 8
-29 15 -50 15 -21 0 -43 -7 -50 -15 -7 -8 -29 -15 -49 -15 -42 0 -141 -44
-141 -62 0 -6 -3 -8 -7 -5 -4 4 -19 -5 -35 -19 -28 -28 -102 -42 -114 -23 -3
5 -16 9 -28 9 -13 0 -36 6 -50 14 -19 9 -47 12 -91 8 -35 -2 -72 -1 -82 3 -33
14 -105 6 -145 -16 -10 -5 -28 -9 -41 -9 -13 0 -28 -5 -35 -12 -7 -7 -12 -8
-12 -3 0 5 -7 -1 -16 -13 -12 -17 -25 -22 -59 -22 -34 0 -50 -6 -71 -26 -23
-24 -34 -27 -98 -28 -60 0 -79 4 -121 27 -56 31 -141 39 -160 15 -16 -19 -52
-38 -75 -38 -24 0 -100 -32 -100 -42 0 -3 -13 -9 -30 -13 -16 -4 -36 -14 -42
-24 -20 -26 -166 -19 -203 9 -15 12 -83 23 -135 23 -46 0 -59 -4 -120 -31 -19
-8 -44 -16 -56 -16 -11 -1 -34 -13 -50 -26 -26 -22 -39 -25 -93 -23 -41 1 -69
7 -80 17 -10 9 -29 16 -43 16 -13 0 -28 3 -31 7 -11 10 -57 13 -57 2 0 -5 -11
-9 -24 -9 -14 0 -28 -5 -31 -11 -4 -6 -34 -10 -68 -8 -67 1 -110 -11 -144 -43
-18 -17 -35 -20 -127 -20 -98 0 -108 -2 -129 -24 -31 -34 -104 -34 -136 0 -18
19 -32 23 -82 23 -33 0 -62 -4 -65 -9 -3 -4 -18 -8 -33 -8 -16 0 -34 -7 -41
-15 -7 -9 -29 -15 -51 -15 -40 0 -78 -15 -92 -37 -4 -7 -14 -13 -21 -13 -7 0
-23 -11 -36 -25 -18 -19 -34 -25 -66 -25 -23 0 -47 6 -53 13 -6 8 -29 22 -51
32 -22 10 -40 22 -40 27 0 11 -37 10 -44 -1 -3 -5 -19 -7 -36 -6 -17 1 -33 -1
-36 -6 -3 -5 -18 -9 -34 -9 -16 0 -31 -4 -34 -9 -3 -5 -22 -12 -41 -15 -19 -4
-35 -11 -35 -16 0 -6 -9 -10 -20 -10 -11 0 -20 -4 -20 -10 0 -5 -3 -9 -7 -8
-16 4 -73 -14 -73 -23 0 -16 -81 -10 -105 9 -12 10 -35 17 -51 16 -16 -1 -39
-3 -51 -3 -13 -1 -23 -7 -23 -16 0 -8 -4 -15 -8 -15 -4 0 -7 -19 -6 -42 1 -24
-3 -49 -8 -55 -18 -22 -65 -15 -93 13 -45 45 -137 46 -183 4 -13 -12 -29 -19
-37 -16 -8 3 -17 1 -20 -3 -4 -7 -69 -43 -85 -46 -62 -15 -122 -47 -148 -78
-7 -8 -27 -21 -45 -28 -17 -7 -52 -35 -77 -61 -25 -26 -54 -48 -64 -48 -9 0
-24 -7 -32 -15 -9 -8 -24 -15 -34 -15 -10 0 -22 -4 -25 -10 -3 -5 -18 -10 -32
-10 -14 0 -42 -14 -62 -30 -20 -17 -41 -35 -47 -39 -16 -13 -136 -18 -153 -7
-9 6 -12 5 -8 -1 4 -6 0 -13 -8 -17 -8 -3 -15 0 -15 7 0 7 -7 4 -14 -6 -11
-14 -15 -15 -19 -5 -4 8 -6 7 -6 -4 -1 -16 -12 -23 -34 -19 -5 1 -6 -3 -3 -7
7 -12 -29 -54 -38 -45 -5 6 -8 -4 -5 -23 0 -4 -4 -10 -9 -13 -6 -3 -21 -27
-35 -53 -30 -56 -50 -78 -71 -78 -9 0 -16 -4 -16 -10 0 -5 -9 -10 -20 -10 -11
0 -20 -4 -20 -10 0 -5 -9 -10 -21 -10 -11 0 -18 -4 -15 -9 3 -4 -5 -7 -18 -6
-14 2 -34 -7 -49 -21 -14 -13 -30 -24 -35 -24 -5 0 -15 -6 -21 -14 -13 -16
-102 -61 -114 -58 -4 1 -7 -3 -7 -8 0 -6 -6 -10 -14 -8 -8 2 -22 -6 -31 -17
-14 -17 -16 -17 -11 -2 5 16 4 16 -19 1 -14 -9 -25 -20 -25 -25 0 -5 -7 -6
-15 -3 -8 4 -15 1 -15 -5 0 -6 -7 -8 -15 -5 -8 4 -15 1 -15 -5 0 -6 -11 -11
-25 -11 -14 0 -25 -4 -25 -10 0 -5 -7 -10 -15 -10 -8 0 -15 -5 -15 -11 0 -5
-4 -8 -8 -5 -4 2 -14 1 -22 -5 -10 -6 -11 -9 -2 -9 16 0 16 -54 -1 -68 -6 -6
-50 -12 -97 -14 l-84 -3 -3 -78 c-1 -43 -7 -84 -12 -91 -6 -7 -8 -16 -5 -19 4
-4 -3 -5 -14 -2 -12 2 -21 1 -21 -3 3 -20 -3 -32 -16 -32 -8 0 -15 -5 -15 -10
0 -11 -13 -28 -44 -60 -14 -15 -19 -35 -20 -81 -1 -34 4 -69 10 -77 15 -20 -1
-51 -54 -102 -22 -22 -36 -42 -32 -45 5 -3 6 -16 1 -28 -7 -20 -7 -84 2 -162
4 -36 29 -118 37 -125 11 -9 23 -45 21 -63 -3 -20 23 -49 35 -39 5 4 2 -1 -5
-10 -7 -9 -9 -23 -5 -29 4 -7 8 -26 9 -43 1 -17 11 -51 23 -75 12 -25 22 -50
22 -56 0 -6 8 -20 18 -31 10 -10 19 -23 21 -29 2 -5 7 -9 12 -7 5 1 9 -3 9 -9
0 -5 5 -7 10 -4 6 3 10 1 10 -5 0 -13 111 -9 144 5 15 7 17 5 11 -6 -5 -8 -1
-7 12 4 11 9 23 14 27 10 17 -17 81 0 118 32 23 19 47 31 61 30 12 -1 22 -3
22 -4 0 -2 19 -5 43 -7 28 -3 42 -1 42 7 0 8 4 8 15 -1 8 -7 35 -12 60 -12 24
1 47 -3 50 -8 4 -6 16 -10 28 -10 12 0 31 -10 42 -23 11 -13 27 -27 35 -30 8
-4 35 -18 59 -32 43 -25 90 -32 105 -17 4 4 20 8 34 8 42 2 98 32 150 82 13
12 24 14 72 14 22 0 112 -8 136 -13 37 -7 69 5 108 41 24 22 48 40 53 40 14 0
51 -19 88 -47 28 -19 43 -21 170 -21 77 0 158 -3 180 -7 51 -11 248 -10 300 1
52 11 44 8 103 31 26 10 104 11 125 1 9 -4 26 -12 37 -18 11 -5 31 -10 44 -10
14 0 27 -4 30 -9 3 -5 26 -4 53 1 27 5 66 11 88 12 22 1 48 6 59 11 11 5 26 4
37 -3 10 -7 34 -12 53 -12 19 0 37 -4 40 -9 6 -9 41 -7 77 4 13 4 65 8 116 7
51 0 93 4 93 9 0 5 41 9 90 9 53 0 90 -4 90 -10 0 -5 6 -10 14 -10 8 0 21 -6
28 -13 34 -33 157 -46 211 -23 9 5 25 5 35 1 9 -5 28 -10 42 -12 13 -2 30 -9
37 -15 20 -16 45 -74 42 -95 -2 -10 5 -36 15 -58 10 -22 22 -49 27 -60 16 -36
5 -71 -36 -114 -22 -23 -39 -47 -38 -52 2 -5 -2 -9 -7 -9 -6 0 -10 -25 -10
-55 0 -55 13 -89 58 -152 16 -23 22 -45 22 -87 0 -31 5 -56 10 -56 6 0 10 -7
10 -15 0 -8 6 -15 13 -15 22 0 67 -57 67 -84 0 -14 -9 -31 -20 -39 -19 -13
-19 -14 13 -44 31 -29 35 -30 122 -28 93 1 145 11 145 26 0 5 18 9 40 9 22 0
40 -4 40 -10 0 -5 5 -10 11 -10 6 0 28 -15 48 -33 35 -31 39 -32 119 -31 45 0
82 -2 82 -5 0 -6 17 -14 90 -44 19 -8 41 -21 49 -30 19 -23 162 -24 181 -2 19
23 91 19 132 -7 67 -45 97 -58 127 -58 17 0 31 5 31 11 0 5 3 8 8 6 4 -2 21 3
37 13 32 18 49 70 22 70 -7 0 -24 11 -37 24 -21 23 -21 26 -6 41 22 22 49 15
56 -14 8 -34 33 -48 62 -34 47 23 65 26 143 29 78 3 114 -6 143 -33 7 -7 19
-13 27 -13 7 0 16 -6 18 -12 4 -10 8 -10 15 0 5 8 12 13 16 13 17 -2 8 15 -11
24 -13 5 -23 13 -23 17 0 5 -7 8 -15 8 -8 0 -15 7 -15 15 0 8 -4 15 -10 15 -5
0 -10 11 -10 24 0 17 7 27 22 32 13 4 28 14 35 23 7 10 27 16 55 17 49 1 88
18 88 39 0 8 5 15 12 15 6 0 9 3 5 6 -3 3 3 21 14 40 24 44 24 50 -6 80 -14
14 -25 22 -25 18 0 -3 -7 -1 -15 6 -12 10 -21 8 -50 -14 -19 -15 -35 -35 -35
-45 0 -26 -25 -44 -59 -43 -17 0 -37 -8 -46 -18 -14 -16 -21 -17 -43 -7 -49
22 -64 42 -60 82 2 25 10 42 22 49 11 6 30 21 42 34 11 12 30 22 41 22 22 0
47 23 37 33 -4 4 5 11 20 16 14 6 26 17 26 25 0 8 16 20 35 27 19 7 35 16 35
19 0 4 17 12 38 18 22 7 57 31 83 57 l44 45 72 0 c62 0 74 -3 90 -22 10 -13
36 -35 58 -49 51 -33 121 -34 182 -2 48 25 172 34 196 14 8 -6 17 -8 20 -4 4
3 17 2 30 -4 44 -22 63 -27 105 -28 34 -1 42 2 42 16 0 31 -12 49 -31 49 -11
0 -27 4 -37 9 -23 13 -56 24 -63 23 -13 -2 -47 44 -51 68 -2 18 -10 26 -28 29
-14 1 -36 11 -50 20 -15 10 -43 17 -70 17 -41 -1 -45 -3 -46 -26 -3 -56 -14
-70 -55 -70 -21 0 -41 -4 -44 -10 -8 -12 -45 -13 -45 -1 0 5 -11 12 -25 15
-18 5 -25 13 -25 31 0 14 5 25 10 25 6 0 10 5 10 11 0 21 35 38 78 39 44 0 67
14 87 53 14 27 57 58 81 58 51 1 105 -15 125 -37 12 -13 28 -24 36 -24 7 0 13
-4 13 -9 0 -10 36 -23 65 -23 29 0 65 13 65 23 0 5 36 8 79 8 l79 -1 47 -44
c47 -46 53 -47 93 -10 18 16 37 21 87 22 72 1 105 20 105 61 0 18 -5 23 -25
23 -14 0 -25 4 -25 9 0 5 -12 12 -27 16 -16 4 -34 11 -40 17 -15 12 -18 68 -4
68 5 0 12 8 15 18 3 9 19 32 35 50 26 28 36 32 79 32 40 0 53 -5 75 -28 15
-15 27 -33 27 -40 0 -7 5 -12 10 -12 6 0 10 -11 10 -24 0 -60 89 -80 137 -31
14 13 35 27 47 31 11 3 28 12 36 19 8 8 29 15 45 18 43 6 77 22 99 46 11 11
25 21 31 21 7 0 18 7 25 15 7 8 20 15 29 15 22 0 71 -51 71 -72 0 -9 6 -19 13
-22 10 -5 10 -7 0 -12 -7 -3 -13 -11 -13 -17 0 -6 -12 -24 -27 -39 -21 -22
-36 -28 -68 -28 -43 0 -66 -16 -89 -62 -13 -25 -61 -53 -95 -55 -13 -1 -31 -9
-40 -17 -10 -9 -22 -16 -27 -16 -5 -1 -20 -14 -34 -30 -13 -17 -33 -30 -43
-30 -10 0 -32 -9 -47 -20 -16 -11 -43 -23 -60 -27 -18 -3 -35 -14 -39 -25 -4
-11 -11 -19 -15 -18 -8 2 -216 -198 -216 -207 0 -8 -33 -77 -43 -90 -7 -10
-13 -8 -26 7 -9 10 -33 23 -54 29 -33 8 -40 7 -60 -12 -12 -12 -29 -35 -37
-52 -31 -63 -53 -76 -127 -78 -38 -1 -73 -7 -80 -13 -15 -15 -17 -60 -3 -69 6
-3 10 -17 10 -30 0 -12 7 -25 15 -29 22 -8 19 -62 -5 -86 -34 -34 -74 -24
-133 33 -16 15 -34 27 -41 27 -42 0 -49 -74 -11 -110 42 -39 31 -104 -28 -162
-9 -10 -21 -18 -25 -18 -12 0 -52 -44 -52 -57 0 -21 105 -39 117 -20 18 30
113 -44 113 -88 0 -26 15 -48 35 -54 27 -9 41 -16 53 -28 7 -7 19 -13 25 -13
7 0 23 -17 37 -37 14 -20 30 -41 36 -47 11 -12 13 -16 21 -46 3 -11 9 -20 13
-20 4 0 11 -10 15 -22 4 -13 9 -25 10 -28 1 -3 6 -15 10 -27 4 -13 11 -23 16
-23 5 0 12 -18 15 -40 4 -22 10 -40 15 -40 5 0 9 -5 9 -12 0 -21 53 -68 76
-68 12 0 27 7 34 15 7 8 17 15 22 15 5 0 19 11 32 25 43 46 84 30 187 -72 38
-37 69 -73 69 -79 0 -6 7 -18 16 -25 9 -7 27 -37 40 -66 13 -28 29 -55 34 -58
6 -3 26 -1 45 6 26 10 35 19 35 36 0 13 -3 23 -8 23 -4 0 -12 10 -17 22 -6 13
-24 32 -42 43 -27 17 -43 44 -48 80 0 6 9 19 21 30 12 11 24 27 26 35 8 23
-10 50 -32 50 -11 0 -28 4 -38 9 -9 6 -28 12 -42 15 -28 6 -50 45 -50 87 0 32
44 69 82 69 32 0 68 39 68 73 0 15 -4 27 -9 27 -7 0 -19 24 -25 51 0 4 -13 18
-27 33 -17 17 -25 35 -24 51 2 14 -2 25 -8 25 -6 0 -28 17 -49 37 -30 30 -45
37 -74 36 -20 -1 -41 -6 -47 -12 -15 -15 -70 -14 -85 1 -15 15 -16 64 -2 73 6
4 8 11 5 16 -4 5 -1 9 4 9 15 0 96 59 96 70 0 5 3 11 7 15 3 4 -9 36 -28 72
-34 66 -43 103 -24 103 6 0 10 7 10 15 0 27 54 72 86 71 31 -2 94 46 94 71 0
7 5 13 11 13 5 0 7 5 4 10 -3 6 4 14 17 19 13 5 30 18 38 30 10 15 25 21 50
21 30 0 44 9 84 49 43 44 52 49 94 49 40 1 52 -4 79 -30 18 -18 33 -37 33 -43
0 -18 36 -42 61 -40 35 3 69 16 69 26 0 5 6 9 14 9 7 0 19 7 26 15 7 8 23 15
36 15 13 0 24 4 24 9 0 5 11 8 24 5 14 -2 30 3 41 16 10 11 23 20 30 20 6 0
24 14 40 30 16 17 35 30 42 30 7 0 13 4 13 8 0 4 13 12 28 18 38 14 78 -9 110
-65 10 -18 11 -26 1 -37 -9 -11 -8 -22 7 -49 15 -28 24 -35 49 -35 23 0 33 7
43 27 16 36 16 41 -11 77 -28 37 -60 104 -62 128 -3 38 75 89 145 94 14 1 31
2 38 3 6 0 12 8 12 16 0 8 5 15 10 15 6 0 10 11 10 24 0 44 59 77 107 61 70
-24 107 -93 68 -125 -8 -7 -15 -28 -15 -46 0 -29 2 -33 18 -25 9 5 33 16 52
25 19 8 50 30 69 49 l33 35 -61 64 c-33 34 -61 68 -61 74 0 16 22 58 42 77 24
24 71 21 96 -6 12 -13 22 -29 22 -35 0 -7 5 -12 11 -12 6 0 10 -10 9 -22 -4
-46 0 -65 19 -86 24 -29 48 -28 76 2 21 22 22 29 13 78 -6 33 -19 63 -34 79
-13 14 -24 30 -24 37 0 7 -4 12 -10 12 -5 0 -10 13 -10 28 0 30 30 65 65 76
20 6 68 47 93 79 12 14 12 19 -1 32 -9 8 -22 15 -31 15 -22 0 -66 -22 -61 -30
5 -8 -20 -32 -39 -37 -61 -15 -66 -14 -96 7 -16 12 -28 25 -25 30 3 5 0 10 -7
12 -9 3 -10 14 -3 44 9 33 17 43 58 62 26 13 47 28 47 33 0 5 11 9 24 9 53 0
61 60 11 88 -16 9 -31 20 -33 24 -5 11 -41 -12 -78 -50 -34 -34 -96 -53 -108
-34 -4 6 -13 9 -21 6 -9 -4 -18 1 -22 12 -3 11 -22 35 -42 54 -46 44 -71 84
-71 110 0 11 -4 20 -10 20 -5 0 -10 14 -10 30 0 17 5 30 10 30 6 0 10 6 10 13
1 23 38 57 62 57 25 0 68 -37 68 -58 0 -7 7 -15 15 -18 8 -4 15 -12 15 -18 0
-7 10 -22 23 -34 20 -19 27 -20 48 -10 23 11 49 49 49 71 0 5 -15 23 -33 41
-31 30 -52 63 -49 77 1 4 -8 15 -18 24 -15 13 -20 31 -20 68 0 46 -3 52 -49
96 -26 25 -48 48 -49 51 -3 21 -23 58 -41 74 -11 11 -21 25 -21 33 0 20 -54
16 -75 -7 -10 -11 -21 -18 -25 -15 -4 2 -18 -7 -30 -20 -13 -14 -29 -25 -36
-25 -7 0 -14 -6 -17 -12 -3 -10 -9 -10 -28 -1 -13 6 -32 14 -41 17 -10 3 -27
27 -40 53 -12 26 -26 51 -31 54 -5 4 -8 18 -5 32 4 19 -3 36 -24 61 -16 20
-27 40 -23 45 3 5 0 13 -6 16 -6 4 -8 18 -4 34 4 14 8 33 9 41 2 8 22 28 45
45 23 16 49 43 57 60 14 27 14 31 -2 42 -25 18 -79 16 -95 -3 -7 -8 -26 -22
-43 -31 -27 -14 -33 -14 -60 1 -38 20 -69 69 -53 85 13 13 -13 45 -56 66 -27
13 -32 13 -57 -5 -16 -11 -32 -20 -37 -20 -5 0 -19 -10 -31 -23 -19 -20 -31
-23 -87 -21 -64 1 -67 2 -112 48 -26 25 -50 46 -55 47 -34 4 -58 1 -88 -13
-54 -25 -74 -32 -90 -33 -32 -3 -70 -18 -70 -28 0 -16 -51 -67 -67 -67 -7 0
-13 -4 -13 -10 0 -5 -22 -10 -48 -10 -41 0 -55 5 -90 36 -23 19 -42 41 -42 48
0 7 -15 29 -32 49 l-33 37 -28 -25 c-16 -14 -25 -30 -22 -35 3 -6 2 -10 -3
-10 -5 0 -12 -9 -15 -19 -5 -22 20 -51 45 -51 18 0 61 -44 51 -53 -3 -4 -1 -7
5 -7 16 0 16 -72 0 -88 -13 -13 -118 -17 -118 -4 0 4 -10 12 -22 17 -13 6 -23
17 -24 25 0 8 -4 23 -8 32 -4 9 -4 23 0 30 14 22 14 42 -1 65 -14 20 -55 29
-55 11 0 -4 -11 -8 -25 -8 -15 0 -31 -10 -42 -26 -44 -64 -86 -104 -109 -104
-13 0 -40 -11 -60 -25 -20 -14 -45 -25 -54 -25 -10 0 -23 -7 -30 -15 -7 -8
-19 -15 -26 -15 -8 0 -14 -4 -14 -10 0 -5 -11 -10 -25 -10 -14 0 -25 5 -25 10
0 6 -5 10 -12 10 -21 0 -68 53 -68 77 0 13 -5 33 -12 46 -6 12 -14 29 -18 37
-15 31 -70 14 -70 -22 0 -33 -50 -74 -94 -76 -21 -2 -43 1 -50 6 -6 6 -25 13
-42 16 -17 4 -44 21 -60 37 -23 25 -29 40 -30 80 -1 48 -23 89 -47 89 -5 0
-31 17 -56 38 -54 44 -89 64 -96 53 -5 -9 -80 -22 -130 -23 -39 -1 -125 38
-125 57 0 8 -9 19 -19 25 -19 9 -22 32 -8 46 12 12 8 84 -5 84 -6 0 -8 3 -5 7
4 4 -5 20 -20 35 -26 27 -35 56 -23 68 3 3 10 14 16 25 9 16 23 21 73 23 80 4
96 17 69 55 -15 21 -18 31 -9 40 6 6 11 29 11 52 0 34 -6 47 -40 80 -52 53
-55 96 -8 119 17 9 43 16 57 15 34 -1 83 -30 97 -58 6 -12 22 -33 34 -46 20
-21 29 -24 59 -19 20 4 52 14 71 22 40 18 45 19 85 28 28 7 63 38 65 59 1 6
17 23 35 38 49 41 127 48 174 15 47 -32 50 -63 9 -105 -31 -32 -71 -43 -83
-23 -15 25 -63 -4 -70 -42 -4 -21 2 -28 43 -46 59 -27 63 -27 106 -3 19 11 36
18 38 15 11 -11 75 23 108 57 30 32 42 38 86 40 48 2 114 -22 114 -43 0 -4 6
-8 14 -8 7 0 19 -7 26 -15 17 -21 82 -19 122 3 18 10 45 17 59 16 18 -2 35 6
50 22 12 13 26 24 31 24 5 0 21 11 36 25 15 14 34 25 42 25 9 0 21 5 27 11 16
16 77 15 110 -1 15 -8 51 -36 80 -62 56 -52 80 -59 107 -29 10 11 31 23 47 26
16 4 29 11 29 16 0 5 11 9 24 9 13 0 29 7 36 15 7 8 20 15 29 15 10 0 32 15
50 34 32 33 37 35 95 33 52 -2 62 -5 72 -25 6 -12 21 -33 33 -46 11 -12 21
-25 21 -29 0 -22 44 -48 76 -45 19 2 34 6 34 11 0 16 57 64 100 84 47 22 87
55 107 90 10 17 8 24 -11 42 -12 11 -29 21 -37 21 -16 0 -89 -70 -89 -85 0
-20 -49 -34 -75 -22 -14 7 -25 15 -25 20 0 4 -7 7 -15 7 -8 0 -15 7 -15 15 0
8 -4 15 -10 15 -5 0 -10 15 -10 34 0 27 8 41 43 70 23 20 52 45 64 56 12 11
26 20 29 20 4 0 18 9 30 21 12 11 39 27 61 34 26 9 38 19 38 32 0 19 -3 19
-105 11 -27 -3 -41 3 -61 24 -15 15 -29 24 -33 21 -4 -4 -9 3 -13 15 -3 12 -9
22 -13 22 -19 0 -2 38 32 72 34 35 40 38 95 38 33 0 64 5 71 12 7 7 12 8 12 3
0 -6 4 -4 9 3 7 12 3 34 -25 115 -4 9 -12 17 -18 17 -23 0 -86 84 -86 113 0
15 -51 67 -66 67 -5 0 -16 -9 -23 -19z m41 -120 c4 -1 15 -18 23 -38 15 -36
15 -37 -17 -70 -17 -18 -39 -33 -47 -33 -20 1 -51 24 -51 39 0 6 -4 11 -10 11
-20 0 -9 37 21 68 21 21 38 30 52 28 12 -3 25 -5 29 -5z m-127 -331 c3 -5 14
-10 23 -10 9 0 29 -12 44 -27 30 -29 38 -79 16 -101 -16 -16 -123 -15 -140 1
-7 7 -21 16 -31 20 -25 10 -31 32 -16 66 9 20 23 33 41 37 16 3 28 10 28 15 0
12 27 12 35 -1z m-605 -48 c0 -4 10 -8 21 -9 31 -3 77 -50 77 -79 0 -18 -8
-28 -24 -34 -13 -5 -24 -14 -24 -20 0 -16 -45 -12 -87 8 -43 19 -68 40 -75 62
-7 19 40 70 57 64 7 -3 16 -1 20 5 7 13 35 15 35 3z m-468 -104 c25 -6 58 -39
58 -58 0 -55 -107 -54 -163 2 -37 37 -11 72 48 65 22 -3 48 -7 57 -9z m896
-15 c6 -6 12 -27 12 -46 0 -39 -15 -48 -85 -52 -34 -2 -42 1 -52 21 -6 13 -7
24 -2 24 5 0 9 4 9 10 0 5 9 21 21 34 22 26 74 31 97 9z m-1441 -91 c0 -27
-26 -47 -45 -36 -25 16 -26 35 -3 41 12 3 21 9 21 14 0 5 6 6 13 3 8 -3 14
-12 14 -22z m-1140 -17 c23 -14 35 -30 39 -54 11 -57 -21 -88 -78 -77 -27 5
-39 14 -48 36 -7 16 -9 38 -5 47 3 10 5 19 3 20 -2 1 8 13 21 27 14 15 27 25
30 23 3 -1 21 -11 38 -22z m586 13 c18 -19 35 -61 30 -75 -3 -8 -22 -13 -46
-13 -35 0 -44 4 -54 25 -6 14 -7 25 -2 25 5 0 9 6 9 13 0 32 41 48 63 25z
m1367 -14 c0 -21 -4 -25 -22 -22 -35 5 -33 48 3 48 14 0 19 -7 19 -26z m-500
-6 c0 -6 3 -8 7 -5 3 4 17 -3 30 -15 17 -16 20 -24 12 -35 -6 -7 -8 -13 -3
-13 5 -1 -2 -7 -16 -15 -31 -18 -72 -19 -88 -3 -7 7 -12 9 -12 4 0 -4 -7 -1
-15 8 -36 36 -2 83 63 85 12 1 22 -4 22 -11z m912 -45 c32 -30 36 -69 11 -89
-20 -15 -93 -19 -93 -5 0 5 -11 12 -25 15 -55 14 -13 106 49 106 19 0 40 -10
58 -27z m-1995 -49 c10 -14 26 -34 36 -45 24 -27 22 -56 -5 -65 -13 -4 -25 -7
-28 -6 -3 0 -10 -4 -17 -9 -7 -6 -13 -6 -17 0 -3 5 -14 8 -23 7 -17 -3 -103
88 -103 109 0 24 26 35 82 35 50 0 59 -3 75 -26z m605 -9 c3 -24 -1 -40 -11
-49 -21 -19 -93 -15 -99 4 -3 8 -11 19 -18 23 -8 4 -14 19 -14 32 0 24 2 25
69 25 l69 0 4 -35z m853 14 c17 -11 38 -22 47 -25 23 -8 32 -38 18 -64 -9 -17
-21 -20 -80 -20 -40 0 -70 4 -70 10 0 6 -5 10 -12 10 -34 0 -58 52 -42 94 9
24 100 20 139 -5z m-2010 -69 c21 -22 35 -40 29 -40 -5 0 -14 -10 -19 -22 -6
-11 -20 -27 -32 -35 -19 -13 -24 -11 -56 16 -19 17 -39 31 -44 31 -21 0 -55
48 -48 69 6 18 14 21 69 21 59 0 64 -2 101 -40z m373 -92 c34 -28 39 -47 20
-66 -17 -17 -168 -15 -191 2 -27 21 -28 51 -4 74 41 38 125 33 175 -10z m315
-31 c10 -4 15 -11 12 -17 -3 -5 -1 -10 4 -10 6 0 11 -21 11 -50 0 -52 -15 -70
-57 -70 -22 0 -73 22 -73 32 0 3 -13 9 -29 13 -60 13 -67 57 -15 86 36 20 116
39 124 29 3 -4 13 -9 23 -13z m-1455 -82 c-2 -39 -5 -45 -24 -45 -35 0 -47 22
-30 55 31 59 56 54 54 -10z m492 36 c0 -9 -22 -31 -31 -31 -4 0 -6 8 -4 18 2
9 4 20 4 24 1 9 31 -2 31 -11z m410 -16 c16 -16 30 -38 30 -49 0 -23 -37 -66
-57 -66 -7 0 -13 -4 -13 -9 0 -10 -58 -8 -85 4 -33 15 -47 34 -52 74 -7 52 25
79 96 77 41 -1 56 -7 81 -31z m-2442 -29 c5 -22 -13 -36 -46 -36 -27 0 -39 24
-21 46 17 21 63 14 67 -10z m1797 4 c3 -5 14 -10 24 -10 19 0 81 -53 81 -70 0
-5 -10 -21 -22 -35 -37 -43 -107 -32 -172 27 -19 18 -19 18 9 48 16 16 35 30
42 30 7 0 13 5 13 10 0 6 4 10 9 10 6 0 13 -4 16 -10z m-867 -29 c12 -11 22
-25 22 -31 0 -19 43 -49 72 -50 14 0 57 16 94 35 45 24 80 35 108 35 38 0 47
-6 101 -60 44 -45 66 -60 87 -60 15 0 28 5 28 10 0 6 10 10 23 10 13 0 28 5
35 12 7 7 12 9 12 5 0 -4 9 2 20 13 23 23 67 26 94 5 11 -8 16 -15 11 -15 -5
0 1 -10 13 -22 19 -21 28 -45 36 -94 4 -21 -49 -84 -71 -84 -7 0 -13 -4 -13
-9 0 -6 -9 -8 -19 -6 -27 5 -66 -39 -55 -62 4 -10 9 -35 9 -56 1 -21 7 -43 12
-48 12 -12 6 -49 -8 -49 -5 0 -6 -6 -3 -13 5 -14 -45 -47 -73 -47 -21 0 -69
45 -87 82 -14 28 -78 37 -104 15 -18 -15 -91 -50 -107 -52 -5 -1 -18 -4 -27
-8 -28 -11 -53 -20 -58 -22 -30 -8 -50 -18 -50 -25 0 -11 -46 -23 -90 -23 -54
-1 -99 13 -113 34 -8 10 -16 16 -20 13 -3 -3 -19 8 -36 25 -28 28 -33 30 -58
19 -15 -6 -38 -21 -50 -32 -13 -11 -26 -16 -29 -13 -7 6 -86 -32 -92 -44 -1
-3 -16 -4 -32 -3 -17 1 -30 -2 -30 -7 0 -5 -6 -9 -13 -9 -8 0 -21 -8 -31 -19
-10 -11 -27 -17 -44 -15 -55 6 -92 15 -92 23 0 4 -30 24 -67 43 -59 30 -72 33
-100 25 -18 -6 -33 -13 -33 -17 0 -7 -30 -18 -52 -20 -5 0 -24 -9 -43 -20 -20
-11 -40 -20 -46 -20 -13 0 -82 -31 -89 -40 -7 -9 -112 -6 -135 5 -11 4 -34 23
-52 41 -18 18 -40 31 -50 29 -10 -1 -24 2 -30 7 -12 10 -61 7 -112 -6 -14 -3
-36 -17 -51 -31 -14 -14 -29 -22 -33 -18 -4 3 -7 1 -7 -5 0 -7 -9 -12 -21 -12
-24 0 -73 -25 -106 -54 -13 -11 -23 -15 -23 -10 0 5 -4 3 -9 -5 -6 -9 -15 -11
-27 -6 -11 5 -21 9 -24 10 -32 11 -50 23 -75 49 -26 27 -38 32 -82 33 -42 1
-55 -3 -74 -23 -19 -20 -32 -24 -86 -24 -55 0 -97 -11 -113 -31 -3 -3 -12 -6
-20 -7 -8 -1 -27 -4 -42 -8 -15 -3 -33 -4 -40 -1 -7 2 -17 5 -22 5 -5 0 -16
15 -25 33 -11 24 -12 34 -3 37 7 2 12 9 12 15 0 6 13 25 29 42 16 16 31 39 32
50 4 28 -11 85 -21 85 -13 0 -55 42 -65 65 -14 34 -14 44 2 57 8 7 19 22 24
35 5 13 15 23 22 23 7 0 24 11 37 25 13 14 34 25 47 25 13 0 23 5 23 10 0 6
13 10 29 10 16 0 34 7 41 15 10 12 36 15 112 15 108 0 104 2 195 -80 29 -26
45 -25 71 3 12 13 38 29 57 37 19 8 35 16 35 20 0 3 22 5 49 4 43 -1 53 3 84
33 33 30 41 33 100 33 52 0 71 -5 101 -25 20 -14 48 -25 62 -25 24 0 25 2 22
68 -4 116 30 124 124 30 44 -45 51 -48 98 -48 41 0 55 5 74 25 13 14 33 25 44
25 11 0 23 4 27 10 3 5 19 1 38 -11 18 -10 40 -22 50 -25 9 -4 17 -10 17 -15
0 -5 6 -9 14 -9 7 0 19 -7 26 -15 7 -8 22 -15 34 -15 27 0 78 50 59 57 -7 3
-13 15 -13 28 0 13 -4 27 -10 30 -17 11 -11 54 9 65 35 18 77 -10 102 -67 13
-32 16 -33 70 -33 48 0 59 4 74 24 10 14 26 25 34 25 9 0 39 1 67 2 49 1 62
-3 139 -50 27 -16 31 -16 47 -2 13 12 15 24 9 51 -15 71 33 105 87 61z m1836
-50 c17 -9 38 -32 48 -49 18 -32 18 -33 -4 -55 -18 -17 -35 -22 -78 -22 -30 0
-57 3 -60 7 -12 16 -49 -5 -61 -35 -14 -33 -55 -79 -85 -95 -15 -8 -30 -4 -69
17 -45 25 -50 31 -51 64 -1 26 6 44 23 63 21 22 30 25 76 22 44 -2 53 0 62 18
5 11 24 34 40 51 26 26 37 31 80 31 30 0 62 -6 79 -17z m-545 -35 c26 -28 32
-85 12 -110 -19 -22 -126 -19 -148 6 -9 10 -21 18 -27 18 -18 0 -46 38 -46 63
0 31 31 43 116 45 63 2 73 -1 93 -22z m-219 -129 c25 -13 39 -45 23 -56 -4 -3
-13 -15 -19 -26 -10 -18 -23 -20 -108 -23 -105 -3 -100 1 -96 -70 3 -51 -31
-82 -89 -82 -65 0 -91 27 -91 94 0 46 3 53 31 69 17 9 43 17 58 17 30 0 91 26
91 40 0 4 24 19 53 33 89 42 101 46 112 30 6 -8 21 -19 35 -26z m868 -53 c46
-9 17 -104 -33 -104 -28 0 -55 38 -55 78 0 38 1 38 33 35 17 -2 42 -6 55 -9z
m-540 -7 c6 -6 13 -24 17 -40 4 -15 11 -27 16 -27 20 0 7 -38 -23 -67 -29 -27
-39 -30 -82 -28 -37 2 -54 8 -66 25 -44 58 17 147 101 149 15 1 31 -5 37 -12z
m-238 -139 c0 -4 7 -8 15 -8 8 0 15 -7 15 -15 0 -8 5 -15 10 -15 14 0 12 -47
-2 -57 -21 -13 -89 -13 -102 0 -7 7 -17 26 -23 43 -9 25 -8 35 3 45 15 15 84
21 84 7z m958 -75 c7 -7 10 -13 6 -13 -5 0 -3 -5 4 -12 19 -19 15 -86 -5 -96
-25 -12 -132 -7 -145 6 -35 35 -1 110 62 138 26 11 47 5 78 -23z m327 -83 c37
0 49 -34 31 -87 -6 -20 -14 -23 -54 -23 -46 1 -82 17 -82 38 0 6 -4 12 -9 14
-5 2 -4 10 3 20 16 22 80 57 84 47 2 -5 14 -9 27 -9z m-578 -11 c6 -6 22 -17
35 -23 12 -6 24 -20 26 -30 5 -24 -46 -76 -75 -76 -28 0 -103 31 -103 43 0 4
-4 6 -8 3 -5 -3 -18 4 -30 14 -21 20 -21 40 1 68 12 15 139 16 154 1z m367
-144 c6 -11 14 -22 18 -25 19 -14 -20 -106 -42 -103 -28 3 -92 30 -111 46 -24
21 -25 64 -2 89 24 27 121 22 137 -7z m2112 4 c16 -17 16 -22 4 -29 -37 -23
-85 5 -60 35 17 20 33 19 56 -6z m-2685 -60 c29 -29 24 -65 -11 -82 -27 -14
-32 -14 -55 5 -14 11 -25 28 -25 39 0 52 54 75 91 38z m300 -24 c13 -4 34 -17
47 -28 12 -11 22 -17 22 -13 0 4 7 0 16 -8 32 -32 -28 -106 -86 -106 -9 0 -27
11 -40 25 -13 14 -28 25 -34 25 -15 0 -56 42 -56 58 0 8 11 25 24 37 23 22 58
25 107 10z m621 -15 c10 -11 18 -34 18 -53 0 -28 -4 -36 -24 -41 -38 -9 -82 4
-111 34 -36 37 -31 73 10 80 47 9 87 2 107 -20z m-2049 -40 c15 -16 27 -35 27
-40 0 -18 51 -60 72 -60 11 0 32 14 48 32 24 25 38 32 75 34 25 1 45 -2 45 -7
0 -5 9 -9 20 -9 20 0 62 -22 87 -47 18 -16 32 -58 25 -70 -14 -20 -92 -39 -92
-22 0 5 -22 9 -48 9 -96 0 -116 -71 -43 -152 35 -40 60 -35 115 21 47 48 64
53 113 37 21 -8 31 -28 39 -78 5 -38 -32 -72 -84 -72 -40 -1 -82 -27 -82 -51
0 -16 29 -73 40 -80 8 -5 100 41 110 55 3 4 24 17 46 29 23 12 56 37 73 57 27
29 32 41 29 76 -2 28 -9 44 -22 52 -59 33 -96 102 -66 121 6 4 8 10 5 15 -3 5
9 16 27 23 28 12 37 12 59 1 32 -16 89 -85 89 -108 0 -57 108 -85 151 -40 12
13 28 24 36 24 7 0 13 4 13 9 0 5 8 12 18 15 33 12 60 32 116 86 32 30 63 55
71 55 7 0 17 4 21 8 18 17 114 3 114 -17 0 -17 91 -103 118 -111 13 -4 35 0
54 9 21 11 59 16 115 16 101 0 123 -15 123 -83 0 -40 -2 -43 -41 -60 -41 -18
-99 -16 -99 4 0 5 -9 9 -20 9 -11 0 -20 5 -20 11 0 6 -14 9 -32 7 -27 -2 -33
-7 -33 -28 -3 -63 -53 -120 -105 -120 -34 0 -67 19 -55 32 3 3 -4 13 -15 23
-11 10 -20 24 -20 32 0 7 -4 13 -10 13 -5 0 -9 3 -8 8 0 4 -2 15 -6 25 -12 25
-58 22 -84 -6 -12 -13 -38 -29 -57 -37 -19 -8 -35 -17 -35 -20 0 -4 -20 -6
-45 -5 -25 1 -45 -2 -45 -6 0 -5 -5 -9 -12 -9 -14 0 -58 -39 -58 -52 0 -4 8
-17 17 -28 14 -16 30 -20 78 -20 34 0 66 5 73 12 7 7 12 9 12 5 0 -4 16 2 35
13 20 11 43 20 52 20 19 0 73 -48 73 -64 0 -6 -17 -27 -37 -48 -31 -32 -44
-38 -78 -38 -31 0 -47 -6 -65 -25 -13 -14 -28 -25 -34 -25 -5 0 -26 -17 -45
-38 -31 -33 -101 -72 -101 -56 0 3 -20 -15 -45 -40 -24 -25 -57 -49 -72 -52
-15 -4 -41 -16 -58 -26 -16 -10 -37 -21 -45 -24 -57 -23 -78 -36 -99 -58 -14
-14 -30 -26 -38 -26 -7 0 -13 -4 -13 -10 0 -5 -16 -10 -35 -10 -19 0 -35 -5
-35 -11 0 -5 -4 -8 -8 -5 -10 6 -66 -51 -75 -76 -5 -14 -17 -18 -49 -18 -65 0
-82 8 -98 43 -24 56 -63 87 -109 87 -22 0 -43 -4 -46 -10 -3 -5 -23 -10 -44
-10 -21 0 -41 -3 -45 -7 -10 -10 -56 -11 -56 -1 0 4 -11 8 -24 8 -13 0 -29 7
-36 15 -7 8 -17 15 -22 15 -13 0 -38 26 -38 39 0 6 -7 11 -15 11 -8 0 -24 6
-35 12 -15 10 -22 10 -32 0 -6 -6 -20 -12 -29 -12 -9 0 -22 -7 -29 -15 -8 -10
-30 -15 -64 -15 -28 0 -73 -7 -100 -15 -57 -17 -132 -20 -141 -5 -4 6 -11 8
-16 5 -5 -4 -9 -2 -9 3 0 5 -8 12 -17 16 -10 3 -31 14 -48 25 -16 11 -42 20
-56 20 -27 1 -84 -23 -94 -40 -8 -12 -72 -12 -80 1 -3 5 -20 16 -38 25 -18 8
-44 26 -59 40 -20 19 -38 25 -71 25 -48 0 -97 -19 -97 -37 0 -7 -8 -13 -18
-13 -10 0 -22 -3 -26 -7 -4 -4 -18 -9 -32 -11 -34 -4 -104 -35 -104 -45 0 -4
-4 -6 -8 -3 -5 3 -27 -4 -50 -16 -41 -19 -44 -20 -78 -3 -20 9 -42 18 -48 20
-32 6 -67 27 -78 45 -16 26 -72 26 -113 -1 -16 -10 -34 -21 -40 -23 -37 -15
-54 -20 -87 -22 -20 -1 -51 -9 -70 -17 -67 -31 -143 -43 -154 -25 -3 4 -16 8
-29 8 -14 0 -29 9 -35 21 -7 11 -14 18 -17 16 -3 -3 -20 3 -39 14 -44 24 -79
24 -113 0 -15 -11 -39 -23 -54 -26 -15 -4 -27 -11 -27 -16 0 -5 -20 -9 -44 -9
-42 0 -106 -26 -106 -42 0 -5 -6 -8 -13 -8 -8 0 -24 -11 -36 -24 -22 -23 -61
-32 -61 -14 0 4 -6 8 -13 8 -7 0 -35 23 -62 50 -42 43 -55 50 -87 50 -21 0
-38 -4 -38 -10 0 -5 -13 -10 -28 -10 -16 0 -32 -3 -36 -7 -10 -10 -96 -11 -96
-1 0 4 -6 8 -13 8 -8 0 -22 9 -32 20 -10 11 -22 17 -26 14 -5 -3 -9 -2 -9 3 0
12 -50 33 -77 33 -13 0 -23 -4 -23 -9 0 -5 -10 -12 -22 -16 -13 -4 -25 -8 -28
-9 -3 -1 -15 -5 -27 -10 -13 -4 -23 -12 -23 -17 0 -5 -22 -9 -50 -9 -27 0 -50
-4 -50 -9 0 -6 -9 -8 -20 -6 -11 2 -22 0 -25 -6 -4 -5 -36 -9 -73 -9 -58 0
-69 3 -94 27 -15 15 -28 35 -28 45 0 10 -20 36 -45 59 -25 23 -42 45 -40 49 3
5 1 11 -5 15 -5 3 -10 15 -10 26 0 10 -5 19 -11 19 -6 0 -9 6 -6 13 3 7 -3 18
-13 25 -21 13 -27 92 -7 92 7 0 6 4 -3 10 -12 8 -11 12 7 32 24 27 64 114 55
122 -3 3 -1 6 5 6 6 0 10 13 9 29 -1 16 -5 29 -11 28 -13 -3 -13 26 2 41 6 6
20 12 31 12 10 0 22 3 26 8 4 4 20 7 34 8 65 2 97 17 94 45 -1 4 14 23 33 42
19 20 35 41 35 47 0 5 7 10 15 10 8 0 15 5 15 10 0 6 10 10 23 10 13 0 27 3
31 8 4 4 15 7 24 8 34 1 72 17 72 28 0 7 10 22 23 33 16 16 33 20 67 19 25 -2
53 -6 63 -11 31 -13 106 -94 109 -118 2 -14 16 -28 38 -38 31 -15 35 -15 39
-2 1 9 7 21 12 27 5 6 20 26 35 44 24 30 30 32 87 32 59 0 63 -2 80 -31 22
-39 22 -63 0 -89 -14 -16 -30 -20 -78 -20 -51 0 -65 -4 -82 -22 -23 -26 -36
-54 -38 -83 -1 -31 -14 -45 -41 -45 -13 0 -24 -4 -24 -10 0 -5 -17 -12 -37
-16 -48 -9 -70 -30 -56 -53 16 -26 51 -25 88 3 18 14 45 26 59 26 14 0 27 4
30 9 3 5 23 7 44 5 31 -3 43 1 62 21 13 14 29 25 35 25 7 0 20 8 29 19 24 27
107 28 131 1 10 -11 24 -20 31 -20 7 0 25 -10 41 -23 39 -32 77 -30 81 3 2 22
-4 30 -42 49 -62 30 -77 54 -64 94 19 57 45 77 103 77 48 0 53 3 98 50 26 28
55 50 65 50 10 0 23 5 30 12 7 7 12 8 12 3 0 -6 5 -3 10 5 8 12 13 13 27 2 10
-6 28 -16 41 -22 32 -14 37 -35 18 -74 -20 -41 -33 -48 -116 -55 -55 -5 -67
-9 -75 -28 -5 -13 -13 -23 -17 -23 -5 0 -8 -13 -8 -28 0 -29 25 -59 68 -82 21
-10 26 -9 39 9 8 12 24 21 36 21 12 0 42 14 66 30 24 17 50 30 58 30 21 0 73
-29 73 -40 0 -6 13 -24 29 -40 28 -29 72 -40 96 -22 21 15 16 50 -10 70 -20
16 -25 28 -25 66 0 38 5 52 26 71 15 14 35 25 45 25 20 0 69 -48 69 -67 0 -7
5 -13 10 -13 6 0 10 -11 10 -23 0 -30 52 -77 83 -77 30 0 57 29 93 98 10 19
-4 45 -22 38 -33 -13 -124 59 -124 99 0 12 9 30 21 41 24 22 96 29 113 11 23
-25 46 -67 46 -86 0 -34 45 -101 68 -101 14 0 53 -46 45 -53 -3 -4 -1 -7 5 -7
7 0 12 -9 12 -20 0 -11 3 -20 8 -20 4 0 12 -10 17 -22 13 -30 66 -34 83 -7 14
22 4 44 -40 91 -16 16 -29 33 -29 38 -2 14 -5 23 -14 44 -6 13 -5 21 3 24 7 2
12 10 12 18 0 8 6 14 14 14 7 0 19 7 26 15 26 32 120 12 120 -25 0 -44 73
-140 107 -140 34 0 53 87 28 123 -8 12 -15 18 -15 14 0 -4 -11 0 -24 8 -32 21
-52 70 -37 88 6 8 9 16 6 19 -7 7 33 41 53 45 32 5 122 -55 122 -81 0 -6 14
-24 30 -40 30 -28 31 -28 58 -10 15 9 33 26 40 35 21 30 73 48 132 46 49 -2
59 1 91 30 20 18 42 33 48 33 6 0 11 5 11 11 0 21 74 6 102 -20 53 -50 22
-117 -56 -119 -21 -1 -47 -9 -57 -18 -26 -23 -25 -75 2 -98 21 -17 23 -17 83
13 34 17 71 40 81 51 10 11 22 20 27 20 15 0 46 38 50 61 2 13 13 28 24 34 12
6 29 17 38 24 12 10 44 14 114 12 l97 -1 35 40 c31 36 40 40 81 40 38 0 50 -5
72 -30z m527 16 c0 -8 5 -16 11 -18 8 -3 8 -10 -2 -26 -15 -24 -39 -28 -57
-10 -25 25 -6 68 30 68 10 0 18 -6 18 -14z m2355 4 c4 -6 10 -8 14 -6 4 3 17
-5 27 -17 16 -18 18 -26 8 -45 -14 -28 -43 -51 -66 -52 -9 0 -30 8 -47 18 -27
15 -31 23 -31 59 0 24 5 43 13 46 22 10 76 7 82 -3z m-1995 -10 c0 -4 8 -10
18 -12 26 -7 24 -78 -2 -107 -20 -22 -46 -28 -46 -10 0 5 -8 10 -17 9 -29 -3
-61 11 -69 28 -15 33 -12 72 6 85 19 13 110 19 110 7z m1452 -19 c18 -16 37
-28 42 -27 5 0 14 -7 20 -16 8 -14 5 -23 -19 -48 -16 -17 -39 -30 -52 -30 -23
0 -64 21 -90 47 -33 31 5 96 59 102 4 1 22 -12 40 -28z m-5375 7 c24 -33 -11
-64 -42 -38 -11 9 -12 16 -2 31 14 22 30 24 44 7z m931 -30 c7 -7 12 -9 12 -4
0 4 7 1 15 -8 20 -19 19 -29 -3 -49 -23 -21 -83 -27 -100 -10 -19 19 -11 66
11 69 11 1 21 5 25 8 9 10 27 7 40 -6z m-539 -38 c19 0 29 -42 18 -76 -9 -31
-32 -45 -77 -48 -22 -2 -80 55 -80 78 0 23 37 66 57 66 7 0 13 5 13 11 0 6 13
1 29 -10 16 -12 34 -21 40 -21z m4436 16 c33 -21 60 -54 60 -73 0 -7 -16 -21
-36 -31 -31 -16 -39 -17 -55 -5 -10 7 -28 13 -40 13 -26 0 -88 66 -78 83 17
29 26 33 72 33 29 -1 59 -8 77 -20z m892 -53 c36 -38 38 -61 7 -94 -15 -16
-33 -29 -40 -29 -18 0 -57 22 -87 50 -24 23 -26 28 -15 51 24 50 97 62 135 22z
m-583 -50 c7 -8 16 -10 62 -19 22 -4 33 -14 41 -35 6 -16 7 -29 2 -29 -5 0 -9
-9 -9 -20 0 -23 -37 -35 -77 -25 -34 8 -103 62 -103 81 0 35 61 70 84 47z
m340 -50 c4 -5 11 -9 14 -9 31 -7 49 -19 59 -41 7 -15 10 -29 5 -32 -4 -3 -12
-15 -18 -26 -9 -17 -23 -20 -89 -23 -114 -4 -139 -42 -63 -96 32 -23 44 -27
58 -18 21 13 83 25 125 25 42 0 75 -12 110 -40 93 -74 92 -73 187 -73 49 0 88
-4 88 -9 0 -6 12 -16 28 -23 40 -20 41 -58 1 -89 -17 -13 -33 -23 -35 -21 -3
1 -19 -5 -37 -15 -17 -9 -34 -18 -37 -18 -24 -7 -51 -25 -85 -58 -22 -22 -53
-46 -70 -53 -17 -7 -39 -22 -49 -33 -11 -12 -23 -21 -28 -21 -5 0 -19 -11 -32
-25 -13 -14 -30 -25 -37 -25 -16 0 -124 -53 -184 -90 -22 -14 -42 -23 -44 -22
-2 2 -7 0 -10 -5 -11 -14 -52 -34 -60 -28 -5 2 -31 -16 -57 -42 -57 -56 -86
-73 -123 -73 -28 0 -92 29 -121 55 -9 8 -20 12 -23 9 -4 -4 -14 -1 -23 6 -12
11 -17 11 -23 1 -5 -7 -11 -12 -15 -11 -14 3 -66 -12 -66 -20 0 -6 -47 -24
-57 -21 -2 0 -17 -7 -35 -17 -31 -18 -33 -22 -36 -81 -2 -35 1 -68 6 -74 33
-41 -17 -117 -103 -156 -11 -5 -36 -25 -54 -45 -19 -20 -39 -36 -44 -36 -6 0
-15 -7 -21 -15 -6 -8 -22 -17 -35 -20 -13 -2 -31 -11 -41 -20 -9 -8 -20 -15
-25 -15 -4 0 -21 -13 -37 -30 -15 -16 -25 -30 -22 -30 20 0 -33 -40 -60 -45
-34 -8 -86 -51 -86 -72 0 -7 -4 -13 -10 -13 -5 0 -10 -11 -10 -23 0 -42 -34
-61 -106 -63 -52 -1 -70 -5 -86 -22 -12 -11 -18 -26 -14 -34 24 -47 38 -65 63
-79 39 -22 40 -44 5 -79 -30 -30 -75 -40 -87 -20 -3 5 -22 17 -43 27 -20 9
-53 34 -74 55 -33 33 -44 38 -82 38 -25 0 -48 -5 -51 -10 -12 -20 -59 -4 -76
26 -19 32 -25 119 -9 129 23 14 4 88 -27 108 -15 9 -18 107 -4 107 12 0 21 40
15 67 -4 16 -30 34 -90 63 -78 38 -84 43 -84 71 0 30 19 59 38 59 5 0 15 7 22
15 14 17 95 21 105 5 4 -6 10 -8 15 -5 5 3 11 1 15 -5 8 -13 55 -13 55 0 0 6
-4 10 -9 10 -5 0 -11 8 -15 18 -3 9 -11 25 -18 35 -9 12 -10 20 -3 25 27 18 2
102 -30 102 -7 0 -20 11 -29 26 -15 22 -15 29 -4 55 7 16 18 29 24 29 6 0 17
7 24 15 17 20 113 21 130 0 6 -8 10 -20 8 -26 -4 -12 36 -59 51 -59 4 0 18 12
31 27 26 30 30 71 10 109 -19 34 -3 58 42 62 29 3 41 -3 73 -37 47 -48 68 -55
91 -30 9 10 29 19 44 19 15 0 30 3 34 7 11 11 46 14 46 3 0 -6 11 -10 25 -10
14 0 30 -9 37 -19 6 -10 18 -17 25 -14 7 3 13 -1 13 -8 1 -20 36 -59 53 -59 8
0 17 -7 21 -15 7 -18 47 -20 64 -3 17 17 16 118 -1 118 -8 0 -22 9 -32 20 -10
11 -20 18 -23 16 -2 -3 -15 6 -28 19 -24 24 -24 24 -6 57 12 21 31 36 53 43
19 6 50 20 69 33 19 12 41 22 48 22 6 0 12 10 12 23 0 13 5 28 12 35 7 7 8 12
3 12 -6 0 33 22 85 48 79 39 96 52 103 77 9 32 44 55 83 55 12 0 27 7 34 15 7
8 21 15 31 15 10 0 21 5 24 10 4 6 10 8 14 6 4 -3 20 7 34 22 24 25 33 28 94
27 65 -1 122 -20 176 -58 34 -24 71 27 51 71 -4 9 -8 20 -8 24 -1 3 -4 10 -8
14 -5 4 -8 20 -8 36 0 28 19 42 83 62 9 3 20 14 24 23 8 22 28 43 40 43 5 0
22 14 38 30 28 29 72 40 89 23z m-559 -63 c3 -5 16 -10 28 -10 24 -1 57 -22
57 -37 0 -5 -7 -24 -16 -41 -12 -24 -22 -32 -43 -32 -15 0 -32 5 -38 11 -6 6
-22 17 -35 23 -33 16 -37 67 -6 82 30 15 45 16 53 4z m1609 -246 c14 -15 26
-32 26 -39 0 -24 -37 -46 -72 -43 -29 3 -33 7 -36 35 -3 32 21 70 44 72 6 1
23 -11 38 -25z m-227 -169 c12 -12 13 -19 3 -30 -16 -19 -34 -19 -50 0 -10 12
-10 18 0 30 16 19 27 19 47 0z m1261 -103 c25 -25 38 -53 41 -90 0 -8 26 -39
56 -71 57 -60 69 -97 40 -121 -20 -16 -95 -26 -95 -12 0 6 -16 26 -35 45 -19
19 -35 44 -35 56 0 12 -7 24 -15 27 -8 4 -15 17 -15 29 0 13 -5 27 -11 31 -6
3 -9 15 -6 25 3 11 1 19 -4 19 -11 0 -1 49 14 68 14 18 44 15 65 -6z m-206
-108 c12 -4 16 -15 14 -38 -6 -58 -16 -76 -45 -76 -15 0 -31 3 -35 8 -4 4 -13
7 -19 7 -13 0 -18 52 -7 73 9 17 52 41 65 36 6 -2 18 -7 27 -10z m-1151 -46
c46 -27 74 -64 72 -94 -2 -45 -13 -72 -31 -77 -77 -25 -151 -67 -186 -106 -11
-11 -25 -21 -31 -21 -7 0 -15 -7 -19 -15 -4 -11 -22 -15 -73 -15 -69 -1 -94
-11 -106 -43 -3 -9 -18 -22 -32 -29 -14 -6 -25 -15 -25 -20 0 -15 -55 -7 -77
11 -13 11 -23 30 -23 42 0 22 64 99 83 99 5 0 26 18 48 40 22 22 36 40 32 40
-4 0 8 16 27 35 19 19 43 35 55 35 40 0 123 36 154 68 33 32 76 59 99 61 7 1
22 -5 33 -11z m927 -100 c29 -29 -3 -98 -46 -98 -29 0 -42 21 -42 67 l0 43 38
0 c21 0 43 -5 50 -12z m687 -113 c11 -5 25 -14 31 -20 16 -15 27 -82 15 -90
-6 -3 -8 -11 -5 -18 2 -7 -6 -23 -20 -36 -27 -26 -41 -21 -106 33 -47 40 -48
77 -3 117 33 28 48 31 88 14z m-4406 -55 c21 0 91 -70 91 -92 0 -10 -5 -18
-11 -18 -6 0 -22 -9 -35 -19 -21 -16 -29 -17 -54 -8 -17 6 -30 15 -30 19 0 4
-6 8 -13 8 -18 0 -52 38 -52 58 -1 31 15 52 40 52 14 0 25 5 25 12 0 9 3 9 12
0 7 -7 19 -12 27 -12z m4212 -131 c20 -26 25 -46 20 -88 -1 -10 -57 -41 -72
-41 -5 0 -26 12 -47 28 -29 20 -39 34 -40 55 0 15 4 27 9 27 5 0 9 9 9 19 0
23 13 29 61 30 29 1 41 -5 60 -30z m-583 -52 c19 -20 20 -26 9 -50 -19 -42
-87 -33 -87 12 0 15 38 61 50 61 4 0 16 -10 28 -23z m334 -39 c28 -13 39 -34
43 -80 6 -68 -95 -95 -148 -40 -15 15 -27 33 -27 40 0 7 -4 12 -10 12 -14 0
-12 48 3 65 15 18 103 20 139 3z m-564 -107 c12 -10 22 -28 22 -40 0 -19 -5
-22 -32 -19 -20 2 -32 8 -30 16 1 6 -2 12 -8 12 -14 0 -13 23 2 38 16 16 21
15 46 -7z m-3440 -62 c-4 -45 -29 -58 -56 -31 -12 12 -22 26 -22 30 0 17 25
32 53 32 26 0 28 -3 25 -31z m3838 -4 c15 -32 15 -38 1 -68 -20 -41 -56 -73
-82 -71 -33 2 -65 16 -65 28 0 6 -10 16 -22 21 -35 15 -36 61 -2 96 25 26 34
29 90 29 62 0 63 0 80 -35z m-235 -112 c42 -51 50 -118 17 -134 -10 -5 -26
-13 -35 -18 -37 -18 -123 44 -123 88 0 39 47 81 90 81 23 0 42 -7 51 -17z
m-3471 -103 c0 -38 -2 -40 -29 -40 -38 0 -43 9 -28 49 8 22 18 31 34 31 20 0
23 -5 23 -40z m1043 -260 c22 -26 21 -32 -2 -57 -14 -15 -28 -19 -48 -15 -29
5 -63 29 -63 44 0 4 8 17 18 27 23 26 73 26 95 1z m1563 -212 c25 -28 29 -74
10 -94 -18 -17 -73 -18 -89 -1 -16 15 -17 87 -3 104 18 20 61 15 82 -9z"/>
<path d="M6688 9006 c-15 -7 -24 -22 -26 -41 -2 -24 3 -32 25 -43 18 -8 30 -9
37 -2 5 5 20 10 33 10 19 0 23 5 23 29 0 45 -47 69 -92 47z"/>
<path d="M3531 8885 c-46 -26 -54 -60 -15 -68 29 -5 87 20 79 34 -4 5 -1 9 4
9 17 0 13 27 -5 34 -21 8 -35 6 -63 -9z"/>
<path d="M6470 8885 c0 -8 -5 -15 -11 -15 -20 0 -5 -45 17 -48 31 -4 50 23 36
53 -13 27 -42 34 -42 10z"/>
<path d="M5910 8833 c-42 -21 -47 -96 -6 -110 50 -17 106 10 106 52 0 22 -17
40 -55 61 -15 7 -27 7 -45 -3z"/>
<path d="M3307 8783 c-4 -3 -7 -19 -7 -34 0 -35 32 -45 57 -17 17 19 17 21 -6
39 -25 20 -34 23 -44 12z"/>
<path d="M6273 8747 c-32 -35 -38 -64 -13 -72 37 -12 60 3 60 39 0 47 -21 62
-47 33z"/>
<path d="M5675 8698 c-15 -46 -3 -78 29 -78 47 0 62 49 24 81 -30 24 -44 24
-53 -3z"/>
<path d="M7498 8571 c-24 -23 -23 -48 2 -61 40 -22 81 35 48 68 -16 16 -30 14
-50 -7z"/>
<path d="M6829 8518 c-17 -7 -27 -47 -14 -59 6 -7 148 14 163 24 33 21 -3 40
-81 41 -27 1 -57 -2 -68 -6z"/>
<path d="M4237 8424 c-16 -16 -6 -34 19 -34 19 0 25 5 22 17 -3 19 -29 29 -41
17z"/>
<path d="M5240 8366 c0 -19 19 -31 31 -19 5 5 0 14 -11 21 -17 10 -20 10 -20
-2z"/>
<path d="M7078 8312 c-11 -12 -11 -16 0 -20 7 -2 17 -14 22 -26 10 -28 50 -32
50 -6 0 10 -5 22 -10 25 -6 4 -8 10 -6 13 2 4 -6 12 -20 19 -19 9 -26 8 -36
-5z"/>
<path d="M4065 8250 c4 -6 11 -8 16 -5 14 9 11 15 -7 15 -8 0 -12 -5 -9 -10z"/>
<path d="M7402 7716 c-11 -13 -10 -76 1 -93 5 -7 17 -13 28 -13 16 0 19 7 19
54 0 45 -3 55 -20 59 -10 3 -23 0 -28 -7z"/>
<path d="M11968 11052 c-22 -4 -26 -62 -5 -62 17 0 57 34 57 48 0 12 -28 20
-52 14z"/>
<path d="M11392 11008 c-20 -20 -14 -54 12 -66 34 -15 53 8 40 46 -11 30 -33
39 -52 20z"/>
<path d="M12272 11008 c-7 -7 -12 -18 -12 -25 0 -7 -5 -13 -11 -13 -13 0 -8
-65 6 -66 6 0 18 -4 28 -8 30 -14 47 11 47 70 0 50 -2 54 -23 54 -13 0 -28 -5
-35 -12z"/>
<path d="M12052 10837 c-17 -18 -19 -26 -10 -35 13 -13 67 -17 69 -4 1 4 2 18
3 32 1 34 -33 38 -62 7z"/>
<path d="M11118 10835 c-3 -3 -3 -15 -1 -26 8 -29 68 -23 68 6 0 15 -8 21 -30
23 -17 2 -33 0 -37 -3z"/>
<path d="M11494 10802 c-6 -4 -13 -17 -17 -30 -4 -18 0 -25 21 -33 21 -8 29
-6 46 12 15 15 17 23 9 26 -7 3 -13 11 -13 19 0 15 -28 19 -46 6z"/>
<path d="M12390 10720 c0 -5 9 -10 21 -10 11 0 17 5 14 10 -3 6 -13 10 -21 10
-8 0 -14 -4 -14 -10z"/>
<path d="M12520 10519 c0 -27 19 -59 35 -59 13 0 35 29 35 45 0 23 -24 45 -49
45 -17 0 -21 -6 -21 -31z"/>
<path d="M11082 10488 c-6 -6 -12 -23 -12 -36 0 -20 4 -23 33 -20 28 3 32 6
32 33 0 22 -5 31 -20 33 -11 1 -26 -3 -33 -10z"/>
<path d="M11280 10437 c0 -20 22 -37 48 -37 13 0 36 -9 52 -20 23 -16 30 -17
45 -6 23 17 28 45 10 62 -19 19 -155 20 -155 1z"/>
<path d="M13010 10237 c-20 -10 -26 -21 -28 -54 -3 -35 1 -44 25 -63 16 -12
29 -17 31 -11 2 6 10 11 19 11 18 0 52 39 53 61 0 16 -50 69 -66 69 -5 0 -20
-6 -34 -13z"/>
<path d="M11160 10205 c-25 -26 -42 -35 -66 -35 -18 0 -36 5 -39 10 -3 6 -18
10 -33 10 -20 0 -42 -14 -77 -50 -27 -27 -55 -50 -62 -50 -7 0 -13 -5 -13 -11
0 -5 -4 -8 -9 -4 -5 3 -12 1 -16 -5 -3 -5 -19 -10 -34 -10 -16 0 -33 -6 -38
-12 -16 -20 -22 -68 -9 -70 42 -5 64 -2 81 13 11 10 23 18 27 19 31 7 48 13
48 20 0 8 53 21 122 29 4 1 13 7 20 14 23 23 78 38 99 26 20 -10 26 -29 8 -29
-5 0 -8 -4 -4 -9 3 -5 1 -12 -5 -16 -5 -3 -10 -19 -10 -34 0 -16 -10 -37 -25
-51 -27 -25 -33 -68 -13 -88 19 -19 82 -15 101 6 10 10 17 23 17 29 0 20 47
53 76 53 45 0 69 9 83 32 10 16 10 26 -4 54 -9 19 -20 32 -26 29 -5 -4 -9 -3
-9 2 0 8 -36 26 -77 38 -20 5 -23 13 -23 54 0 79 -35 93 -90 36z"/>
<path d="M9871 10063 c-19 -21 -3 -47 31 -51 33 -4 52 19 35 41 -17 23 -49 28
-66 10z"/>
<path d="M9256 10008 c-21 -41 -20 -54 4 -78 20 -20 74 -27 97 -12 6 4 12 24
14 44 4 48 -22 78 -67 78 -27 0 -35 -6 -48 -32z"/>
<path d="M12194 9999 c-8 -14 11 -33 25 -25 6 4 11 14 11 22 0 16 -26 19 -36
3z"/>
<path d="M8780 9945 c-19 -19 -51 -43 -70 -52 -19 -9 -38 -22 -42 -27 -5 -8
-14 -7 -29 2 -19 12 -25 10 -55 -19 -19 -18 -33 -38 -32 -43 2 -15 -13 -50
-25 -58 -10 -6 14 -38 28 -38 9 0 35 27 35 37 0 11 79 48 101 48 10 0 21 3 25
8 4 4 19 7 34 7 30 0 67 35 99 93 17 31 19 41 9 57 -18 29 -39 25 -78 -15z"/>
<path d="M16921 9897 c-8 -11 -5 -19 14 -37 l25 -24 21 20 c26 27 16 54 -21
54 -15 0 -33 -6 -39 -13z"/>
<path d="M11463 9867 c-23 -12 -33 -35 -33 -78 0 -25 3 -26 52 -28 39 0 57 4
73 19 21 20 21 20 43 0 12 -11 30 -20 41 -20 11 0 23 -5 26 -10 3 -6 18 -8 33
-5 35 6 89 -45 98 -92 3 -18 10 -33 15 -34 51 -7 54 -5 57 42 2 37 -1 49 -23
69 -14 13 -25 28 -25 34 0 6 -14 17 -30 24 -17 8 -36 19 -43 25 -20 19 -55 37
-70 37 -8 0 -22 -9 -32 -20 -10 -11 -23 -20 -30 -20 -7 0 -20 9 -30 20 -10 11
-24 20 -30 20 -7 0 -18 7 -25 15 -14 17 -35 18 -67 2z"/>
<path d="M10560 9842 c0 -19 30 -45 55 -48 32 -4 76 -18 81 -25 3 -5 24 -9 47
-9 26 0 58 -10 86 -25 31 -18 56 -25 90 -23 61 2 77 18 59 58 -10 23 -21 31
-48 36 -19 3 -56 16 -82 30 -48 24 -102 32 -112 15 -3 -4 -18 -6 -33 -4 -16 2
-54 7 -85 10 -54 5 -58 4 -58 -15z"/>
<path d="M12880 9834 c0 -23 3 -25 33 -22 24 2 33 8 35 26 3 19 -1 22 -32 22
-32 0 -36 -3 -36 -26z"/>
<path d="M10194 9799 c-11 -18 64 -86 103 -94 29 -5 39 -2 56 16 14 15 17 24
9 27 -7 2 -12 9 -12 15 -1 32 -138 64 -156 36z"/>
<path d="M12360 9790 c0 -5 5 -10 11 -10 5 0 7 5 4 10 -3 6 -8 10 -11 10 -2 0
-4 -4 -4 -10z"/>
<path d="M8891 9760 c-22 -13 -8 -45 20 -48 29 -3 58 23 42 39 -13 13 -47 19
-62 9z"/>
<path d="M11250 9710 c0 -4 -8 -10 -18 -12 -21 -6 -26 -44 -6 -52 13 -5 36
-47 38 -69 1 -5 9 -14 19 -21 9 -7 17 -22 17 -33 0 -11 7 -26 15 -33 8 -7 15
-19 15 -26 0 -8 5 -14 12 -14 6 0 8 -3 4 -7 -3 -4 8 -22 26 -40 31 -32 58 -43
58 -23 0 6 6 10 13 10 8 0 24 11 37 25 12 13 26 22 30 20 4 -2 18 7 31 21 13
14 39 32 57 40 19 7 36 23 39 34 3 11 9 20 14 20 14 0 10 40 -5 56 -25 24 -60
16 -96 -21 -19 -19 -40 -35 -47 -35 -8 0 -16 -7 -19 -15 -11 -27 -84 -11 -84
18 0 7 -9 18 -21 25 -11 7 -18 19 -15 27 3 8 1 17 -4 20 -6 4 -10 16 -10 29 0
13 -9 31 -20 41 -19 18 -80 29 -80 15z"/>
<path d="M9215 9629 c-22 -22 -49 -49 -59 -60 -11 -10 -25 -19 -32 -19 -6 0
-17 -7 -24 -15 -7 -8 -20 -15 -29 -15 -16 0 -70 -43 -72 -58 -9 -45 -3 -68 20
-80 17 -9 27 -10 29 -3 2 6 9 11 16 11 15 0 61 48 69 73 4 9 13 17 20 17 8 0
22 9 31 19 12 13 31 20 56 19 46 0 58 6 72 40 15 36 14 78 -2 97 -21 26 -54
17 -95 -26z"/>
<path d="M10083 9605 c-17 -19 -17 -21 9 -50 24 -28 38 -31 70 -12 49 27 60
57 22 57 -8 0 -14 5 -14 10 0 15 -73 11 -87 -5z"/>
<path d="M13030 9584 c0 -34 1 -35 31 -32 63 6 61 68 -2 68 -27 0 -29 -3 -29
-36z"/>
<path d="M10962 9555 c-10 -11 -10 -20 -2 -36 14 -26 73 -24 78 3 7 39 -49 63
-76 33z"/>
<path d="M12853 9502 c-27 -4 -32 -46 -7 -56 18 -7 76 23 68 36 -9 14 -38 24
-61 20z"/>
<path d="M9363 9455 c-18 -19 -16 -31 5 -40 39 -18 52 -15 52 8 0 41 -33 60
-57 32z"/>
<path d="M13154 9427 c-19 -17 -31 -33 -27 -36 5 -3 13 -15 19 -26 6 -11 24
-22 40 -25 39 -7 88 45 78 84 -3 14 -11 27 -18 27 -6 1 -21 3 -34 4 -14 1 -37
-10 -58 -28z"/>
<path d="M11687 9393 c-9 -10 -28 -32 -42 -49 -21 -27 -79 -64 -110 -70 -36
-7 -63 -25 -61 -40 4 -24 43 -63 61 -60 9 1 42 28 73 59 35 35 66 57 80 57 12
0 22 5 22 12 0 6 3 8 7 5 11 -12 53 35 53 59 0 39 -54 57 -83 27z"/>
<path d="M12065 9300 c-9 -15 3 -30 24 -30 23 0 31 9 24 26 -6 16 -39 19 -48
4z"/>
<path d="M12930 9237 c0 -13 11 -34 25 -47 20 -19 27 -21 40 -10 21 17 19 39
-7 61 -30 27 -58 25 -58 -4z"/>
<path d="M13267 9232 c-15 -15 -27 -37 -27 -48 0 -23 26 -51 50 -55 23 -4 72
20 65 31 -3 5 -1 10 4 10 15 0 14 63 -1 78 -21 21 -63 14 -91 -16z"/>
<path d="M11795 9183 c-18 -17 -18 -19 -5 -43 5 -10 18 -17 27 -15 10 2 23 4
29 4 9 1 10 12 5 52 -2 15 -42 16 -56 2z"/>
<path d="M11248 9135 c-24 -31 -23 -42 5 -51 51 -17 97 -1 97 35 0 45 -73 57
-102 16z"/>
<path d="M11610 9091 c-26 -30 -41 -61 -30 -61 5 0 10 -10 10 -22 0 -27 47
-55 64 -38 5 5 20 10 33 10 24 0 28 12 24 60 -3 32 -39 70 -65 69 -12 0 -28
-9 -36 -18z"/>
<path d="M13055 9035 c-25 -20 -10 -49 29 -53 25 -3 27 -1 24 30 -3 37 -23 46
-53 23z"/>
<path d="M12853 8936 c-27 -12 -30 -41 -8 -63 13 -13 18 -13 33 -1 33 26 40
41 28 60 -12 20 -21 21 -53 4z"/>
<path d="M11940 8915 c-7 -8 -8 -15 -2 -15 5 0 12 -9 15 -19 3 -15 12 -19 32
-18 32 3 51 26 42 51 -8 21 -70 22 -87 1z"/>
<path d="M12328 8879 c-10 -10 -18 -26 -18 -34 0 -18 28 -34 50 -28 21 6 24
51 4 70 -15 16 -15 16 -36 -8z"/>
<path d="M11757 8828 c-20 -11 -22 -41 -3 -57 10 -8 19 -6 40 10 14 11 26 24
26 28 0 15 -46 29 -63 19z"/>
<path d="M12071 8779 c-40 -24 -45 -38 -26 -75 8 -16 15 -25 15 -19 0 5 5 4
12 -3 7 -7 28 -12 48 -12 46 0 60 15 60 61 0 36 -2 39 -50 53 -3 1 -10 4 -16
8 -6 4 -25 -2 -43 -13z"/>
<path d="M12637 8778 c-26 -14 -21 -47 7 -54 33 -8 45 1 43 33 -2 28 -23 37
-50 21z"/>
<path d="M12987 8721 c-16 -17 -16 -19 1 -34 10 -10 31 -17 46 -17 25 0 27 3
24 33 -2 26 -8 32 -28 34 -14 1 -33 -6 -43 -16z"/>
<path d="M11844 8653 c-4 -10 -8 -39 -9 -64 -2 -56 18 -75 59 -56 18 9 26 20
26 39 0 15 -4 29 -9 33 -5 3 -12 19 -16 35 -7 34 -38 41 -51 13z"/>
<path d="M12409 8618 c-8 -28 -3 -39 24 -53 16 -8 31 -14 31 -13 1 2 7 14 14
27 12 20 12 25 0 32 -12 8 -67 13 -69 7z"/>
<path d="M12780 8541 c0 -34 15 -42 48 -28 37 17 20 57 -25 57 -19 0 -23 -5
-23 -29z"/>
<path d="M12224 8529 c-3 -6 -14 -9 -24 -6 -28 7 -57 -18 -56 -47 1 -14 15
-39 30 -55 l29 -30 38 27 c32 23 39 33 39 63 0 28 -5 38 -25 47 -17 8 -26 8
-31 1z"/>
<path d="M12532 8459 c-18 -17 -32 -37 -32 -43 0 -17 63 -76 81 -76 26 0 56
43 57 80 1 29 -4 38 -29 53 -40 22 -40 22 -77 -14z"/>
<path d="M13093 8464 c-10 -27 5 -45 34 -41 22 3 28 9 28 27 0 19 -6 24 -28
25 -16 1 -31 -4 -34 -11z"/>
<path d="M13418 8416 c-29 -22 -32 -61 -7 -95 13 -17 28 -31 34 -31 6 0 25 15
43 33 33 34 41 70 20 90 -18 17 -70 19 -90 3z"/>
<path d="M12000 8345 c0 -30 3 -35 24 -35 14 0 28 5 31 10 4 6 11 8 16 5 13
-9 11 29 -3 43 -7 7 -25 12 -40 12 -25 0 -28 -3 -28 -35z"/>
<path d="M15240 8345 c-7 -8 -17 -15 -22 -15 -6 0 -24 -10 -41 -22 -18 -13
-34 -22 -37 -22 -6 2 -18 -2 -45 -12 -23 -8 -32 -11 -43 -13 -13 -2 -47 -34
-55 -51 -4 -8 -16 -28 -26 -45 -24 -37 -25 -52 -7 -71 31 -31 87 -9 155 60 24
25 48 43 53 40 4 -3 8 0 8 5 0 6 6 11 13 11 16 0 87 71 87 87 0 6 6 13 13 16
9 3 9 9 1 23 -15 25 -38 29 -54 9z"/>
<path d="M12327 8301 c-22 -38 -22 -87 1 -96 33 -15 72 -12 89 7 9 10 13 18 8
18 -4 0 -2 7 5 15 7 8 10 20 7 27 -2 7 -6 18 -8 23 -4 13 -47 35 -68 35 -9 0
-24 -13 -34 -29z"/>
<path d="M12892 8318 c-7 -7 -12 -22 -12 -35 0 -20 5 -23 39 -23 45 0 57 17
35 49 -17 23 -44 27 -62 9z"/>
<path d="M13240 8270 c0 -5 -9 -10 -21 -10 -11 0 -18 -4 -14 -9 3 -5 1 -12 -5
-16 -5 -3 -10 -19 -10 -35 0 -29 22 -50 53 -50 24 0 38 75 22 113 -8 18 -25
23 -25 7z"/>
<path d="M12650 8221 c0 -5 -8 -11 -17 -15 -23 -7 -49 -24 -89 -56 -17 -14
-41 -32 -52 -40 -12 -8 -22 -24 -22 -36 0 -11 -3 -24 -7 -28 -15 -15 -11 -38
8 -43 10 -3 19 -9 19 -14 0 -5 8 -9 18 -9 22 0 59 37 64 64 4 25 54 52 96 53
50 2 52 2 52 17 0 7 7 19 15 26 36 30 2 90 -52 90 -18 0 -33 -4 -33 -9z"/>
<path d="M12123 8168 c-31 -48 -35 -81 -10 -73 7 2 24 6 40 9 20 5 27 12 27
29 0 39 -39 63 -57 35z"/>
<path d="M13055 8161 c-44 -27 -65 -54 -71 -92 -5 -28 -1 -39 20 -58 15 -14
34 -26 44 -27 18 -3 62 32 62 49 0 5 11 20 25 33 35 33 34 75 -4 97 -36 21
-39 21 -76 -2z"/>
<path d="M15325 8090 c-22 -23 -38 -44 -36 -48 7 -14 -55 -41 -96 -41 -23 -1
-45 -6 -48 -11 -4 -6 -10 -8 -14 -6 -4 3 -13 -10 -21 -27 -23 -52 -64 -87
-102 -87 -41 0 -118 -51 -118 -78 0 -13 -44 -52 -58 -52 -14 0 -49 -18 -74
-39 -21 -17 -23 -47 -5 -64 16 -15 37 -20 37 -8 0 9 30 22 65 27 49 8 82 16
105 27 28 14 60 43 60 55 0 13 41 47 77 64 22 11 34 13 42 5 8 -8 22 0 51 28
22 21 40 43 40 48 0 5 18 27 41 49 33 32 50 42 87 46 51 6 87 34 87 68 0 24
-35 75 -46 68 -4 -2 -10 0 -14 6 -10 16 -19 12 -60 -30z"/>
<path d="M14799 8034 c-18 -20 -43 -40 -54 -45 -11 -5 -35 -20 -53 -34 -18
-13 -40 -21 -48 -18 -8 3 -14 0 -14 -6 0 -6 -7 -11 -15 -11 -8 0 -24 -9 -35
-20 -11 -11 -20 -27 -20 -35 0 -8 -4 -15 -8 -15 -5 0 -9 -13 -9 -28 0 -31 35
-56 59 -41 7 5 28 9 47 9 37 0 60 22 61 58 0 12 6 22 13 22 8 0 24 11 36 24
12 13 36 27 54 30 34 7 77 42 77 63 0 7 4 13 9 13 16 0 23 40 11 55 -23 28
-73 18 -111 -21z"/>
<path d="M12729 7998 c-33 -61 1 -111 77 -113 53 -2 94 24 94 60 0 13 5 27 11
30 7 5 4 14 -7 26 -14 15 -31 19 -90 19 -66 0 -75 -2 -85 -22z"/>
<path d="M13372 7997 c-27 -28 -28 -42 -4 -53 51 -22 102 -6 102 33 0 46 -62
58 -98 20z"/>
<path d="M12211 7929 c-11 -12 -19 -33 -18 -48 2 -23 6 -26 42 -26 l40 0 3 48
c3 44 2 47 -22 47 -14 0 -34 -10 -45 -21z"/>
<path d="M13110 7910 c0 -5 7 -10 15 -10 8 0 15 5 15 10 0 6 -7 10 -15 10 -8
0 -15 -4 -15 -10z"/>
<path d="M13512 7858 c-7 -7 -12 -24 -12 -39 0 -20 6 -28 23 -31 35 -7 47 1
47 31 0 28 -16 51 -35 51 -6 0 -16 -5 -23 -12z"/>
<path d="M12078 7796 c-37 -13 -40 -56 -4 -56 37 0 56 10 56 30 0 27 -21 38
-52 26z"/>
<path d="M12942 7798 c-7 -7 -12 -22 -12 -35 0 -18 5 -23 28 -23 15 0 34 5 42
10 12 7 11 13 -10 34 -27 29 -31 31 -48 14z"/>
<path d="M13798 7753 c-60 -62 -85 -76 -145 -77 -23 -1 -45 -4 -49 -9 -4 -4
-18 -7 -31 -7 -12 0 -23 -4 -23 -9 0 -5 -12 -12 -26 -15 -22 -6 -25 -11 -22
-44 2 -31 9 -40 36 -53 43 -20 118 -16 150 8 13 10 23 22 23 26 -3 14 29 38
69 52 3 1 12 4 20 7 8 4 24 9 34 12 10 4 16 9 13 12 -7 7 9 24 38 40 10 6 28
23 39 37 l20 27 -23 24 c-35 37 -63 30 -123 -31z"/>
<path d="M14398 7796 c-10 -7 -18 -23 -18 -35 0 -17 6 -21 36 -21 34 0 35 1
32 32 -3 36 -23 45 -50 24z"/>
<path d="M15271 7738 c-15 -25 1 -48 34 -48 13 0 25 -6 28 -12 5 -16 35 -1 51
26 9 13 6 21 -14 36 -32 24 -83 23 -99 -2z"/>
<path d="M16202 7728 c-18 -18 -14 -42 11 -66 27 -26 34 -27 53 -8 31 31 11
86 -31 86 -12 0 -26 -5 -33 -12z"/>
<path d="M13290 7702 c0 -4 -10 -12 -22 -17 -38 -16 -33 -40 9 -53 74 -23 116
7 73 53 -22 23 -60 35 -60 17z"/>
<path d="M14185 7700 c-3 -5 -14 -10 -24 -10 -10 0 -26 -9 -36 -20 -10 -11
-37 -29 -61 -41 -24 -11 -44 -24 -44 -29 0 -4 -8 -10 -17 -14 -30 -10 -76 -41
-72 -48 2 -4 -11 -23 -30 -42 -31 -32 -79 -53 -108 -47 -7 1 -13 -3 -13 -9 0
-5 -6 -10 -13 -10 -21 0 -57 -44 -57 -69 0 -21 21 -51 36 -51 3 0 14 8 23 18
21 22 80 63 94 66 51 9 177 103 177 133 0 15 50 54 60 48 5 -3 11 -1 15 5 3 5
16 10 29 10 62 0 118 59 96 101 -11 20 -45 26 -55 9z"/>
<path d="M12372 7668 c4 -31 53 -34 53 -3 0 15 -8 21 -28 23 -25 3 -28 0 -25
-20z"/>
<path d="M12716 7641 c-42 -24 -52 -44 -39 -74 10 -22 20 -25 80 -31 37 -3 75
-6 85 -7 9 0 24 -9 33 -20 15 -16 103 -38 128 -31 4 1 7 -2 7 -8 0 -14 52 -12
70 3 14 11 16 17 11 45 -2 14 -78 60 -111 67 -16 4 -30 11 -30 16 0 5 -27 9
-59 9 -43 0 -60 4 -65 15 -3 8 -17 15 -31 15 -14 0 -25 5 -25 10 0 14 -21 11
-54 -9z"/>
<path d="M15670 7650 c0 -5 -7 -10 -15 -10 -18 0 -20 -44 -2 -57 14 -10 44
-10 70 1 27 12 21 49 -10 64 -33 15 -43 15 -43 2z"/>
<path d="M12240 7607 c0 -13 9 -32 20 -42 11 -10 18 -20 16 -23 -8 -7 39 -49
65 -58 48 -16 90 3 84 38 -7 34 -44 60 -94 66 -27 3 -53 13 -62 24 -22 24 -29
23 -29 -5z"/>
<path d="M16570 7566 c0 -14 4 -27 9 -30 18 -11 41 6 41 30 0 19 -5 24 -25 24
-20 0 -25 -5 -25 -24z"/>
<path d="M14545 7537 c-31 -17 -13 -55 30 -62 6 0 18 -5 27 -9 11 -5 24 0 38
14 l22 22 -21 21 c-22 22 -70 29 -96 14z"/>
<path d="M13370 7519 c0 -6 -9 -22 -20 -36 l-19 -25 25 -25 25 -24 19 23 c22
26 26 68 8 86 -15 15 -38 16 -38 1z"/>
<path d="M11925 7486 c-12 -5 -26 -20 -33 -34 -14 -30 1 -52 51 -77 29 -14 32
-14 54 7 14 13 22 30 20 40 -3 9 0 19 7 21 7 3 2 14 -12 30 -24 25 -50 29 -87
13z"/>
<path d="M16304 7483 c-25 -19 -7 -47 33 -51 37 -4 52 22 28 48 -18 20 -36 21
-61 3z"/>
<path d="M11405 7438 c-12 -6 -26 -22 -33 -36 -10 -22 -9 -29 10 -49 12 -13
29 -23 38 -23 26 0 78 62 76 90 -2 21 -8 25 -37 27 -19 0 -43 -4 -54 -9z"/>
<path d="M11703 7279 c-18 -6 -20 -12 -14 -36 8 -29 31 -33 59 -11 30 26 -4
63 -45 47z"/>
<path d="M14109 7266 c-1 -3 -2 -9 -3 -13 -5 -25 -29 -53 -46 -53 -10 0 -22
-5 -25 -10 -4 -6 -10 -8 -15 -5 -16 10 -95 -42 -95 -62 0 -26 49 -30 75 -6 12
12 32 18 50 17 16 -1 33 2 36 7 3 5 16 9 30 9 29 0 41 24 39 79 0 29 -5 37
-23 39 -12 2 -23 1 -23 -2z"/>
<path d="M13600 7168 c0 -13 9 -34 19 -47 16 -21 21 -23 32 -10 22 23 21 46
-3 63 -31 22 -48 20 -48 -6z"/>
<path d="M10909 7136 c-10 -12 -2 -44 16 -62 31 -31 55 -30 78 2 31 42 19 59
-41 60 -28 0 -52 0 -53 0z"/>
<path d="M14182 7108 c-7 -7 -12 -18 -12 -25 0 -7 -4 -13 -10 -13 -5 0 -10 -6
-10 -12 -1 -19 -42 -46 -76 -49 -28 -4 -63 -31 -65 -53 -5 -45 -27 -87 -49
-93 -11 -3 -20 -9 -20 -14 0 -5 -6 -9 -14 -9 -7 0 -19 -7 -26 -15 -7 -8 -24
-15 -39 -15 -50 0 -67 -37 -26 -57 14 -6 25 -7 25 -2 0 5 7 9 15 9 8 0 15 6
15 13 0 15 46 37 77 37 13 0 23 -4 23 -10 0 -5 22 -10 49 -10 54 0 62 10 66
82 2 42 46 100 101 132 41 25 59 78 35 100 -21 19 -43 20 -59 4z"/>
<path d="M11280 7015 c-23 -24 -23 -25 -5 -45 22 -24 27 -25 54 -2 19 15 20
20 9 44 -16 34 -28 35 -58 3z"/>
<path d="M10132 6978 c-19 -19 -15 -68 6 -69 44 -4 66 2 89 26 21 20 23 27 13
40 -15 18 -91 20 -108 3z"/>
<path d="M11070 6926 c0 -18 16 -24 48 -18 32 6 22 26 -16 30 -23 2 -32 -1
-32 -12z"/>
<path d="M16362 6873 c-4 -10 -7 -24 -6 -30 1 -7 2 -17 3 -23 2 -16 58 -12 65
5 8 23 -15 65 -35 65 -10 0 -22 -8 -27 -17z"/>
<path d="M7447 6753 c-5 -12 -3 -26 9 -46 9 -16 12 -16 34 8 21 22 22 28 10
35 -18 12 -47 13 -53 3z"/>
<path d="M13927 6655 c-40 -29 -10 -62 53 -59 58 2 60 3 60 24 0 34 -81 59
-113 35z"/>
<path d="M16040 6390 c-13 -8 -11 -14 13 -37 l28 -28 19 23 c10 13 16 30 13
37 -6 17 -50 20 -73 5z"/>
<path d="M8226 6295 c-16 -12 -23 -70 -8 -77 15 -6 72 -87 72 -102 0 -8 5 -18
10 -21 6 -3 10 -13 10 -22 0 -24 37 -98 60 -118 11 -10 20 -24 20 -32 0 -7 4
-13 9 -13 8 0 24 -37 22 -51 0 -4 31 -37 69 -73 38 -37 68 -69 67 -71 -1 -2 5
-13 14 -23 8 -10 18 -26 22 -35 10 -25 53 -39 128 -41 68 -1 109 -21 109 -53
0 -7 5 -13 10 -13 6 0 10 -6 10 -14 0 -7 6 -19 14 -26 8 -6 16 -26 18 -43 2
-21 10 -35 25 -42 12 -5 24 -18 27 -28 2 -10 13 -21 24 -24 11 -3 22 -14 25
-25 3 -11 14 -22 25 -25 11 -3 22 -13 25 -24 3 -10 16 -23 29 -29 77 -33 103
-67 111 -148 5 -48 102 -114 121 -83 7 10 31 9 42 -2 4 -4 18 -7 31 -7 13 0
31 -4 41 -9 49 -25 95 -41 116 -41 52 0 68 73 24 112 -13 13 -32 39 -42 58
-35 74 -59 100 -104 119 -18 7 -32 20 -32 27 0 8 -5 14 -11 14 -16 0 -35 23
-44 50 -4 14 -11 27 -14 30 -4 3 -15 22 -24 43 -17 35 -39 48 -51 28 -16 -24
-101 10 -126 51 -18 29 -18 34 -3 50 8 9 13 24 10 31 -7 18 -81 57 -107 57
-11 0 -20 4 -20 9 0 5 -8 12 -17 15 -49 17 -188 140 -178 156 3 4 -4 15 -15
25 -11 10 -20 22 -20 26 0 5 -21 30 -47 57 -51 50 -79 88 -103 137 -8 17 -17
32 -20 35 -3 3 -10 14 -16 24 -6 11 -19 24 -30 30 -10 6 -21 14 -24 17 -8 9
-42 22 -70 26 -37 6 -100 40 -129 71 -28 29 -59 35 -85 17z"/>
<path d="M14026 6289 c-22 -10 -55 -19 -73 -19 -34 0 -93 -24 -93 -38 0 -4
-17 -16 -37 -27 -21 -10 -45 -24 -53 -31 -8 -7 -28 -14 -45 -17 -16 -2 -43
-10 -60 -17 -16 -7 -32 -14 -35 -14 -28 -5 -100 -43 -100 -53 0 -7 -5 -13 -11
-13 -7 0 -21 -10 -33 -23 -11 -12 -35 -29 -53 -36 -18 -7 -38 -19 -44 -27 -6
-8 -19 -14 -28 -14 -10 0 -28 -11 -41 -25 -13 -14 -29 -25 -35 -25 -7 0 -25
-10 -40 -21 -15 -12 -37 -23 -49 -24 -12 -2 -45 -13 -72 -26 -63 -30 -63 -30
-102 2 -19 15 -42 25 -52 22 -11 -3 -24 4 -34 19 -23 32 -94 33 -128 1 -14
-13 -30 -23 -36 -23 -7 0 -12 -5 -12 -10 0 -12 -45 -32 -78 -35 -12 -1 -34
-13 -48 -26 -14 -13 -31 -24 -37 -24 -20 -2 -51 -17 -72 -36 -20 -18 -23 -18
-89 15 -37 18 -66 37 -65 42 1 5 -9 14 -22 21 -19 10 -27 9 -41 -4 -20 -18
-24 -48 -8 -58 18 -11 11 -51 -13 -73 -26 -24 -36 -22 -102 24 -39 27 -77 28
-117 4 -18 -11 -40 -22 -48 -26 -8 -3 -23 -10 -32 -15 -10 -5 -27 -9 -38 -9
-11 0 -20 -5 -20 -11 0 -5 -4 -8 -9 -4 -5 3 -12 1 -16 -5 -3 -5 -17 -10 -31
-10 -13 0 -24 -4 -24 -10 0 -5 -6 -10 -13 -10 -8 0 -24 -11 -37 -25 -13 -14
-30 -23 -37 -21 -7 3 -15 1 -18 -5 -12 -19 -79 3 -112 38 -18 18 -37 33 -42
33 -5 0 -14 7 -21 15 -7 8 -28 15 -46 15 -32 0 -34 -2 -34 -35 0 -19 4 -35 9
-35 8 0 18 -22 27 -61 2 -10 -7 -24 -21 -33 -24 -16 -27 -15 -50 1 -13 10 -25
21 -25 26 0 4 -11 7 -24 7 -14 0 -28 5 -31 10 -4 6 -30 10 -58 9 -29 -1 -64 4
-80 10 -24 9 -49 46 -51 76 -1 11 -105 14 -112 3 -3 -5 -15 -8 -27 -8 -28 -1
-52 -19 -59 -46 -8 -33 6 -47 49 -50 21 -1 44 -2 51 -3 21 -2 14 -48 -8 -54
-11 -3 -22 -5 -24 -4 -3 1 -15 -7 -28 -19 -24 -22 -84 -54 -102 -54 -5 0 -27
16 -48 37 -31 31 -45 37 -90 40 -46 4 -56 1 -80 -21 -14 -14 -39 -28 -55 -32
-15 -4 -42 -15 -60 -25 -17 -10 -48 -21 -69 -25 -20 -4 -45 -15 -55 -25 -10
-10 -31 -21 -46 -25 -16 -4 -36 -13 -45 -22 -10 -8 -32 -15 -50 -17 -39 -2
-85 -13 -113 -26 -22 -11 -45 -8 -90 10 -16 7 -31 12 -33 11 -2 0 -17 10 -33
24 -17 15 -34 26 -37 27 -44 6 -67 3 -88 -13 -13 -11 -24 -25 -24 -32 0 -19
-34 -46 -58 -46 -22 0 -107 -43 -129 -66 -24 -23 -6 -96 27 -109 26 -9 60 -31
84 -54 17 -16 35 -21 74 -21 28 0 54 5 57 10 4 6 12 10 18 9 13 -2 41 7 69 22
10 5 27 9 37 9 11 0 24 6 28 13 12 19 55 38 83 36 14 -1 37 3 51 9 18 7 30 7
37 0 5 -5 36 -10 67 -9 60 0 95 21 95 56 0 30 23 41 80 39 61 -1 100 -12 100
-25 0 -12 37 -11 45 1 3 6 26 10 50 10 24 0 46 4 50 9 3 5 16 8 29 5 14 -2 29
3 37 12 25 31 97 50 111 30 4 -6 11 -6 20 0 7 5 38 10 68 9 30 0 58 4 62 9 4
6 11 6 20 0 26 -20 178 -5 178 17 0 5 5 9 11 9 6 0 26 7 45 15 19 8 49 22 67
30 18 8 69 15 113 16 43 1 86 5 94 10 34 17 58 22 130 26 179 9 240 15 240 23
0 8 41 18 92 23 15 1 30 6 34 10 4 4 18 7 31 7 13 0 23 5 23 11 0 6 7 9 15 5
8 -3 15 -1 15 4 0 6 11 10 25 10 14 0 25 5 25 10 0 6 32 10 75 10 49 0 75 4
75 11 0 6 8 9 18 7 11 -3 36 3 57 13 21 11 53 19 70 19 17 0 35 3 39 7 7 8 32
11 161 22 109 10 156 24 187 56 13 14 27 25 32 25 5 0 18 8 29 17 15 14 39 18
115 19 54 1 100 2 104 3 3 0 28 21 55 46 32 30 57 45 75 45 15 0 30 5 33 10 3
6 16 10 29 10 12 0 26 3 30 7 7 8 24 12 74 20 17 3 32 9 32 14 0 5 6 9 13 9 8
0 24 11 37 25 24 25 64 33 75 15 12 -20 117 -11 170 14 27 13 57 27 65 31 27
11 59 31 80 50 11 10 20 14 20 10 0 -4 8 2 19 13 15 18 29 22 79 22 51 0 68
-5 105 -30 24 -16 50 -36 57 -45 7 -8 16 -12 21 -9 5 3 9 2 9 -3 0 -15 54 -32
92 -30 21 1 38 5 38 10 0 13 66 7 99 -9 49 -25 211 -19 211 7 0 5 15 9 34 9
19 0 36 6 39 13 4 10 7 10 18 0 7 -7 25 -13 39 -13 14 0 31 -5 38 -12 9 -9 18
-9 37 0 34 16 305 17 305 1 0 -7 14 -9 38 -6 21 2 49 0 63 -6 29 -11 120 -9
135 4 6 5 14 6 17 2 4 -3 7 -1 7 5 0 7 16 12 40 12 22 0 40 5 40 10 0 7 6 7
18 1 34 -18 90 -41 101 -41 6 0 11 -4 11 -10 0 -13 157 -13 165 -1 3 6 39 10
80 10 41 0 77 -4 80 -10 4 -5 30 -9 59 -9 29 0 56 -3 60 -7 15 -15 101 -27
123 -18 10 5 28 8 40 9 12 1 25 4 29 9 4 4 19 7 34 7 14 0 31 5 37 11 6 6 41
11 77 11 56 0 66 2 71 19 4 10 10 19 15 19 4 0 13 13 18 29 8 21 5 40 -9 82
-22 60 -27 78 -28 96 -1 7 -13 24 -28 38 -15 14 -24 25 -20 25 4 0 2 10 -5 23
-7 12 -13 27 -13 32 -3 24 -18 45 -38 51 -39 13 -68 10 -84 -9 -9 -10 -33 -25
-52 -35 -20 -9 -40 -22 -46 -29 -5 -7 -27 -13 -48 -15 -21 -1 -41 -6 -43 -10
-3 -4 -12 -8 -21 -8 -9 0 -24 -7 -34 -16 -9 -8 -32 -16 -50 -16 -19 0 -40 -5
-47 -11 -9 -7 -16 -7 -24 1 -7 7 -18 12 -26 12 -21 0 -57 32 -60 55 -5 30 -19
39 -57 40 -27 1 -42 -6 -67 -32 -17 -18 -38 -33 -45 -33 -7 0 -13 -5 -13 -11
0 -7 -24 -10 -70 -7 -38 2 -70 0 -70 -4 0 -5 -16 -8 -35 -8 -19 0 -35 -4 -35
-9 0 -8 -26 -20 -55 -25 -24 -5 -72 20 -104 53 -56 57 -83 67 -124 47 -19 -9
-38 -16 -42 -16 -4 0 -15 -8 -24 -19 -20 -22 -57 -35 -93 -32 -16 1 -28 -2
-28 -8 0 -6 -6 -11 -14 -11 -7 0 -19 -7 -26 -15 -7 -8 -23 -15 -36 -15 -13 0
-24 -4 -24 -10 0 -23 -89 -1 -109 27 -3 4 -23 20 -43 36 -41 30 -98 36 -118
12 -7 -8 -18 -15 -25 -15 -7 0 -20 -11 -29 -25 -10 -15 -26 -25 -41 -25 -13 0
-27 -4 -30 -10 -3 -5 -19 -10 -36 -10 -16 0 -29 -4 -29 -10 0 -6 -3 -9 -7 -8
-12 4 -103 -44 -103 -54 0 -4 -22 -8 -50 -8 -27 0 -50 5 -50 10 0 6 -7 10 -15
10 -10 0 -15 10 -15 29 0 17 -4 33 -10 36 -5 3 -10 15 -10 26 0 15 -7 19 -39
19 -22 0 -44 -6 -51 -15 -7 -8 -17 -15 -22 -15 -5 0 -20 -11 -34 -25 -54 -54
-164 -11 -164 64 0 33 18 49 112 95 57 28 62 38 30 55 -12 6 -29 3 -56 -10z
m2432 -131 c7 -7 12 -20 12 -30 0 -15 -9 -18 -50 -18 -51 0 -59 11 -37 48 10
15 59 16 75 0z"/>
<path d="M15493 6294 c-7 -19 2 -28 22 -21 19 8 19 23 0 31 -9 3 -18 -1 -22
-10z"/>
<path d="M14353 6248 c-41 -20 -20 -78 27 -78 19 0 21 5 18 42 -3 45 -12 52
-45 36z"/>
<path d="M9377 6203 c-16 -15 -6 -33 18 -33 27 0 32 9 13 28 -14 14 -22 15
-31 5z"/>
<path d="M13290 6129 c0 -5 5 -7 10 -4 6 3 10 8 10 11 0 2 -4 4 -10 4 -5 0
-10 -5 -10 -11z"/>
<path d="M10882 5998 c-13 -13 2 -38 23 -38 21 0 36 25 23 38 -7 7 -17 12 -23
12 -6 0 -16 -5 -23 -12z"/>
<path d="M9887 5930 c-33 -26 -33 -30 -1 -53 24 -18 26 -18 45 -1 23 21 24 26
1 54 l-17 21 -28 -21z"/>
</g>
</svg>
